<?xml version="1.0" encoding="iso-8859-1"?>
<!-- Generator: Adobe Illustrator 19.0.0, SVG Export Plug-In . SVG Version: 6.00 Build 0)  -->
<svg version="1.1" id="Layer_1" xmlns="http://www.w3.org/2000/svg" xmlns:xlink="http://www.w3.org/1999/xlink" x="0px" y="0px"
	 viewBox="0 0 512 512" style="enable-background:new 0 0 512 512;" xml:space="preserve">
<g>
	<g>
		<g>
			<path d="M202.19,247.98c-11.698,0-21.219,9.618-21.219,21.493c0,11.874,9.52,21.501,21.219,21.501
				c11.714,0,21.232-9.626,21.232-21.501C223.422,257.597,213.903,247.98,202.19,247.98z"/>
			<path d="M309.651,247.812c-11.812,0-21.393,9.698-21.393,21.661s9.581,21.661,21.393,21.661c11.798,0,21.379-9.698,21.379-21.661
				S321.448,247.812,309.651,247.812z"/>
			<path d="M226.2,419.909c-8.071,0-14.639,6.635-14.639,14.828s6.568,14.833,14.639,14.833c8.081,0,14.648-6.641,14.648-14.833
				C240.846,426.543,234.28,419.909,226.2,419.909z"/>
			<path d="M285.691,449.682c8.139,0,14.749-6.69,14.749-14.944c0-8.253-6.61-14.944-14.749-14.944
				c-8.149,0-14.759,6.69-14.759,14.944C270.933,442.991,277.542,449.682,285.691,449.682z"/>
			<path d="M481.866,128.858c-0.58-0.097-14.415-2.358-31.87-1.796c-24.751,0.797-44.474,6.66-58.622,17.426
				c-16.887,12.851-30.15,27.466-38.534,37.806c-4.788-2.297-9.705-4.301-14.699-6.036c2.679-14.505,8.801-37.97,22.311-58.231
				c3.326-4.99,6.37-9.465,9.055-13.414C394.403,68,397.138,61.906,397.138,0h-32.337c0,29.015-0.443,42.779-3.188,52.917
				c-2.611,9.637-8.036,17.617-18.844,33.513c-2.724,4.007-5.813,8.548-9.221,13.659c-16.007,24.006-23.467,50.796-26.877,68.418
				c-18.551-2.998-36.426-3.539-50.67-3.539c-14.243,0-32.119,0.541-50.67,3.539c-3.41-17.621-10.871-44.412-26.877-68.418
				c-3.408-5.111-6.496-9.653-9.221-13.659c-10.808-15.896-16.234-23.874-18.844-33.513C147.643,42.779,147.2,29.015,147.2,0
				h-32.337c0,61.906,2.734,68,27.63,104.613c2.685,3.949,5.729,8.425,9.055,13.414c13.512,20.264,19.636,43.733,22.312,58.231
				c-4.994,1.735-9.912,3.739-14.7,6.036c-8.384-10.34-21.646-24.955-38.534-37.806c-14.148-10.766-33.872-16.63-58.622-17.426
				c-17.458-0.561-31.29,1.699-31.87,1.796l-15.019,2.5l1.594,15.141c0.063,0.584,1.567,14.512,6.766,31.196
				c7.366,23.643,18.275,41.088,32.423,51.854c16.695,12.704,34.112,21.536,46.297,26.881c-1.458,7.896-2.201,16.245-2.201,25.029
				c0,35.459,8.152,57.158,18.472,84.629c3.415,9.09,6.946,18.489,10.599,29.466C147.815,451.892,174.633,512,256.001,512
				s108.185-60.108,126.935-116.446c3.653-10.977,7.184-20.377,10.599-29.466c10.32-27.47,18.472-49.168,18.472-84.629
				c0-8.784-0.743-17.133-2.201-25.029c12.183-5.344,29.601-14.176,46.298-26.881c14.147-10.765,25.056-28.212,32.422-51.853
				c5.199-16.685,6.705-30.612,6.766-31.196l1.594-15.141L481.866,128.858z M112.691,225.711
				c-10.194-4.624-24.026-11.862-37.21-21.894c-12.443-9.468-19.803-29.185-23.581-44.44c2.813-0.084,5.868-0.097,9.064,0.006
				c17.648,0.568,31.508,4.317,40.08,10.839c13.18,10.029,23.921,21.544,31.127,30.185
				C124.238,207.751,117.727,216.211,112.691,225.711z M317.913,454.535c-15.302,17.144-34.976,25.128-61.912,25.128
				s-46.61-7.984-61.912-25.128c-7.69-8.616-14-19.176-19.433-30.662c19.379-16.201,49.494-25.979,81.344-25.979
				c31.851,0,61.965,9.78,81.344,25.98C331.911,435.361,325.602,445.921,317.913,454.535z M363.263,354.715
				c-3.357,8.938-7.163,19.066-11.01,30.628c-0.815,2.448-1.65,4.901-2.497,7.352c-24.752-17.257-58.151-27.137-93.755-27.137
				s-69.004,9.881-93.755,27.137c-0.847-2.451-1.683-4.903-2.497-7.352c-3.847-11.563-7.653-21.69-11.01-30.628
				c-9.88-26.296-16.407-43.67-16.407-73.256c0-33.693,13.145-56.496,40.186-69.714c19.879-9.717,47.186-14.441,83.482-14.441
				s63.603,4.724,83.482,14.441c27.041,13.218,40.186,36.021,40.186,69.714C379.668,311.045,373.143,328.418,363.263,354.715z
				 M457.652,168.077c-5.253,16.858-12.56,29.216-21.131,35.739c-13.109,9.976-26.989,17.232-37.221,21.877
				c-5.034-9.494-11.541-17.947-19.471-25.286c7.207-8.641,17.947-20.157,31.127-30.185c12.444-9.468,33.409-11.305,49.117-10.879
				C459.405,162.076,458.604,165.024,457.652,168.077z"/>
		</g>
	</g>
</g>
<g>
</g>
<g>
</g>
<g>
</g>
<g>
</g>
<g>
</g>
<g>
</g>
<g>
</g>
<g>
</g>
<g>
</g>
<g>
</g>
<g>
</g>
<g>
</g>
<g>
</g>
<g>
</g>
<g>
</g>
</svg>
