<?xml version="1.0" encoding="iso-8859-1"?>
<!-- Generator: Adobe Illustrator 19.0.0, SVG Export Plug-In . SVG Version: 6.00 Build 0)  -->
<svg version="1.1" id="Layer_1" xmlns="http://www.w3.org/2000/svg" xmlns:xlink="http://www.w3.org/1999/xlink" x="0px" y="0px"
	 viewBox="0 0 512.002 512.002" style="enable-background:new 0 0 512.002 512.002;" xml:space="preserve">
<g>
	<g>
		<path d="M494.558,132.396c20.991-48.834,5.427-96.259-2.238-114.382L484.7,0l-15.732,11.623
			c-10.875,8.036-28.517,14.623-47.194,21.597c-28.949,10.811-60.874,22.745-80.487,44.856
			C316.413,55.128,286.082,42.229,256,42.229s-60.412,12.9-85.288,35.848C151.099,55.965,119.173,44.03,90.224,33.22
			c-18.678-6.975-36.319-13.562-47.194-21.597L27.301,0l-7.62,18.014c-7.665,18.123-23.228,65.548-2.238,114.382
			c15.489,36.034,47.292,64.319,94.597,84.203c-0.272,5.115-0.431,10.364-0.431,15.787c0,18.676-5.485,43.684-11.29,70.162
			c-1.843,8.404-3.693,16.854-5.416,25.272c-13.576-15.048-23.638-33.626-29.519-54.826l-29.698,8.239
			c9.382,33.816,27.609,62.359,52.94,83.092c-3.532,27.746-3.136,53.666,6.816,74.434c13.709,28.605,41.945,49.425,83.927,61.884
			c36.423,10.809,70.225,11.357,76.633,11.357s40.21-0.548,76.633-11.357c41.982-12.458,70.219-33.279,83.927-61.883
			c9.954-20.769,10.348-46.688,6.816-74.434c25.331-20.732,43.558-49.275,52.94-83.092l-29.698-8.239
			c-5.881,21.2-15.943,39.777-29.519,54.826c-1.723-8.417-3.573-16.869-5.416-25.272c-5.805-26.477-11.29-51.486-11.29-70.162
			c0-5.424-0.159-10.673-0.431-15.787C447.265,196.716,479.069,168.429,494.558,132.396z M181.933,110.676
			c20.556-23.561,48.245-37.627,74.068-37.627c25.823,0,53.512,14.066,74.068,37.627c18.021,20.657,39.504,58.54,39.504,121.711
			c0,22.016,5.832,48.608,12.006,76.763c2.945,13.43,6.013,27.429,8.426,41.121c-12.857,7.81-26.863,13.038-40.471,15.153
			c-3.971-14.953-13.352-28.549-27.385-39.324c-17.839-13.697-41.331-21.241-66.149-21.241s-48.309,7.544-66.149,21.241
			c-14.032,10.775-23.414,24.37-27.385,39.324c-13.608-2.114-27.613-7.343-40.471-15.153c2.413-13.692,5.481-27.691,8.426-41.121
			c6.174-28.155,12.006-54.749,12.006-76.763C142.429,169.216,163.912,131.333,181.933,110.676z M320.868,381.91
			c0,11.567-6.21,22.705-17.487,31.364c-12.485,9.587-29.311,14.867-47.378,14.867s-34.893-5.279-47.379-14.867
			c-11.278-8.659-17.487-19.798-17.487-31.364c0-11.566,6.21-22.705,17.487-31.363c12.485-9.587,29.311-14.867,47.379-14.867
			s34.893,5.279,47.378,14.867C314.657,359.205,320.868,370.343,320.868,381.91z M45.759,120.225
			c-11.782-27.41-8.225-55.265-3.409-73.325c11.201,5.525,23.915,10.272,37.094,15.193c28.018,10.462,56.839,21.235,70.521,39.271
			c-13.79,18.821-27.632,45.881-34.282,83.153C80.604,168.211,57.114,146.643,45.759,120.225z M388.768,425.44
			c-9.786,20.419-31.622,35.781-64.904,45.657c-33.024,9.801-64.396,10.083-67.865,10.083c-3.468,0-34.841-0.282-67.865-10.083
			c-33.281-9.877-55.116-25.237-64.904-45.658c-5.266-10.988-6.472-25.786-5.425-42.369c14.285,6.999,29.403,11.598,44.178,13.393
			c3.655,15.713,13.231,30.019,27.865,41.255c17.839,13.697,41.331,21.241,66.149,21.241s48.309-7.544,66.149-21.241
			c14.634-11.237,24.21-25.542,27.865-41.255c14.776-1.796,29.893-6.394,44.178-13.393
			C395.24,399.654,394.035,414.451,388.768,425.44z M396.319,184.518c-6.65-37.274-20.492-64.334-34.282-83.153
			c13.682-18.036,42.502-28.808,70.521-39.271c13.179-4.921,25.893-9.668,37.094-15.193c4.816,18.059,8.373,45.915-3.409,73.325
			C454.886,146.643,431.397,168.211,396.319,184.518z"/>
	</g>
</g>
<g>
	<g>
		<path d="M231.33,369.611c-6.694,0-12.141,5.503-12.141,12.298c0,6.794,5.447,12.302,12.141,12.302
			c6.702,0,12.148-5.508,12.148-12.302S238.032,369.611,231.33,369.611z"/>
	</g>
</g>
<g>
	<g>
		<path d="M280.581,369.515c-6.759,0-12.241,5.549-12.241,12.394c0,6.845,5.482,12.394,12.241,12.394
			c6.751,0,12.232-5.549,12.232-12.394C292.812,375.064,287.33,369.515,280.581,369.515z"/>
	</g>
</g>
<g>
	<g>
		<path d="M204.716,174.668c-11.15,0-20.223,9.167-20.223,20.486c0,11.318,9.073,20.492,20.223,20.492
			c11.164,0,20.236-9.175,20.236-20.492C224.953,183.835,215.88,174.668,204.716,174.668z"/>
	</g>
</g>
<g>
	<g>
		<path d="M307.137,174.509c-11.258,0-20.389,9.243-20.389,20.645c-0.001,11.402,9.131,20.645,20.389,20.645
			c11.244,0,20.376-9.243,20.376-20.645S318.382,174.509,307.137,174.509z"/>
	</g>
</g>
<g>
</g>
<g>
</g>
<g>
</g>
<g>
</g>
<g>
</g>
<g>
</g>
<g>
</g>
<g>
</g>
<g>
</g>
<g>
</g>
<g>
</g>
<g>
</g>
<g>
</g>
<g>
</g>
<g>
</g>
</svg>
