<?xml version="1.0" encoding="iso-8859-1"?>
<!-- Generator: Adobe Illustrator 19.0.0, SVG Export Plug-In . SVG Version: 6.00 Build 0)  -->
<svg version="1.1" id="Layer_1" xmlns="http://www.w3.org/2000/svg" xmlns:xlink="http://www.w3.org/1999/xlink" x="0px" y="0px"
	 viewBox="0 0 512.001 512.001" style="enable-background:new 0 0 512.001 512.001;" xml:space="preserve">
<g>
	<g>
		<path d="M424.215,366.942l52.038-12.084l-7.09-30.534l-47.244,10.97c-5.613-34.209-21.181-67.543-44.627-94.678
			c20.635-28.324,36.949-64.818,46.453-104.274c9.713-40.327,11.006-79.165,3.459-103.89c-6.458-21.155-18.157-28.625-26.836-31.166
			c-8.004-2.343-20.817-2.63-36.388,9.322c-33.228,25.505-68.817,100.738-73.25,175.221c-11.341-2.766-22.964-4.197-34.73-4.197
			c-11.766,0-23.388,1.432-34.73,4.197c-4.434-74.483-40.022-149.716-73.25-175.221C132.45-1.345,119.639-1.061,111.633,1.285
			c-8.679,2.542-20.379,10.012-26.836,31.166c-7.548,24.726-6.255,63.563,3.459,103.89c9.504,39.457,25.819,75.949,46.453,104.274
			c-23.446,27.135-39.015,60.469-44.627,94.678l-47.244-10.97l-7.09,30.535l52.038,12.084c0.423,20.887,4.702,40.264,12.649,57.703
			l-64.687,15.022l7.09,30.535l74.968-17.408c5.936,7.384,12.713,14.249,20.332,20.531c30.248,24.94,72.106,38.675,117.863,38.675
			c45.757,0,87.615-13.735,117.863-38.675c7.619-6.282,14.397-13.148,20.332-20.531l74.968,17.407l7.09-30.535l-64.687-15.022
			C419.513,407.206,423.792,387.829,424.215,366.942z M383.067,35.474c5.159-3.959,8.007-4.247,8.491-4.104
			c0.589,0.172,3.279,2.416,5.666,10.235c10.471,34.302-1.86,118.362-42.582,176.816c-10.384-8.565-21.441-15.716-32.992-21.366
			C322.917,125.924,357.936,54.764,383.067,35.474z M114.778,41.604c2.387-7.819,5.075-10.062,5.665-10.235
			c0.48-0.143,3.332,0.146,8.491,4.104c25.13,19.29,60.15,90.45,61.417,161.58c-11.55,5.65-22.607,12.801-32.992,21.366
			C116.638,159.965,104.307,75.906,114.778,41.604z M256.018,410.531c-1.672-0.064-7.128-2.544-12.755-8.237
			c-5.909-5.978-7.908-11.18-7.913-12.635c0-0.086,0.001-0.166,0.003-0.24c1.811-0.76,6.893-2.015,20.649-2.015
			c13.756,0,18.836,1.255,20.648,2.015c0.002,0.074,0.003,0.155,0.003,0.24c-0.005,1.454-2.004,6.656-7.913,12.634
			C263.114,407.986,257.657,410.468,256.018,410.531z M380.118,417.342l-42.273-9.816l-7.09,30.535l28.297,6.571
			c-1.654,1.541-3.36,3.046-5.13,4.506c-21.252,17.523-50.039,28.25-82.246,30.875v-41.891
			c18.797-8.551,36.325-30.147,36.325-48.463c0-13.562-6.77-23.879-19.065-29.052c-7.681-3.232-17.221-4.549-32.933-4.549
			c-15.711,0-25.253,1.319-32.934,4.549c-12.295,5.173-19.065,15.491-19.065,29.053c0,18.316,17.529,39.913,36.326,48.463v41.892
			c-32.208-2.624-60.996-13.352-82.25-30.876c-1.77-1.46-3.476-2.964-5.13-4.507l28.297-6.571l-7.09-30.535l-42.273,9.816
			c-6.88-12.903-11.039-27.352-12.341-43.026l54.614,12.682l7.09-30.535l-60.567-14.064c4.462-29.926,18.185-59.283,39.152-82.908
			c26.622-29.995,60.776-46.514,96.17-46.514s69.549,16.519,96.17,46.514c20.967,23.625,34.69,52.982,39.152,82.908l-60.567,14.064
			l7.09,30.535l54.614-12.682C391.157,389.992,386.998,404.44,380.118,417.342z"/>
	</g>
</g>
<g>
	<g>
		<path d="M203.841,276.959c-11.34,0-20.569,9.324-20.569,20.836c0,11.511,9.229,20.843,20.569,20.843
			c11.355,0,20.583-9.332,20.583-20.843C224.423,286.281,215.196,276.959,203.841,276.959z"/>
	</g>
</g>
<g>
	<g>
		<path d="M308.013,276.796c-11.45,0-20.738,9.401-20.738,20.998s9.288,20.998,20.738,20.998c11.437,0,20.725-9.401,20.725-20.998
			C328.738,286.197,319.449,276.796,308.013,276.796z"/>
	</g>
</g>
<g>
</g>
<g>
</g>
<g>
</g>
<g>
</g>
<g>
</g>
<g>
</g>
<g>
</g>
<g>
</g>
<g>
</g>
<g>
</g>
<g>
</g>
<g>
</g>
<g>
</g>
<g>
</g>
<g>
</g>
</svg>
