<?xml version="1.0" encoding="iso-8859-1"?>
<!-- Generator: Adobe Illustrator 19.0.0, SVG Export Plug-In . SVG Version: 6.00 Build 0)  -->
<svg version="1.1" id="Layer_1" xmlns="http://www.w3.org/2000/svg" xmlns:xlink="http://www.w3.org/1999/xlink" x="0px" y="0px"
	 viewBox="0 0 512 512" style="enable-background:new 0 0 512 512;" xml:space="preserve">
<g>
	<g>
		<path d="M491.864,22.244c-9.104-11.967-22.296-19.678-37.145-21.714c-14.883-2.042-29.692,1.866-41.697,10.998
			c-15.122,11.503-29.011,29.588-39.839,46.263c-2.941-1.872-5.991-3.657-9.18-5.329C329.026,34.124,285.613,32.003,256,32.003
			s-73.026,2.121-108.002,20.46c-3.189,1.672-6.239,3.456-9.18,5.329c-10.828-16.674-24.718-34.76-39.839-46.263
			C86.974,2.396,72.162-1.513,57.281,0.529c-14.85,2.036-28.042,9.748-37.146,21.715C11.033,34.211,7.12,48.982,9.122,63.837
			c2.006,14.888,9.723,28.117,21.727,37.249c16.268,12.376,39.443,21.344,59.615,27.405c-2.4,10.978-3.615,22.854-3.615,35.63
			c0,34.6,18.362,95.753,26.257,120.44c3.998,12.499,23.756,72.935,39.055,95.552c-0.346,7.132-0.523,14.479-0.523,22.052v3.563
			l1.54,3.212c0.585,1.221,8.275,16.762,26.055,31.357C181.949,480.289,215.331,512,256,512s74.05-31.711,76.768-71.703
			c17.78-14.595,25.47-30.135,26.055-31.357l1.54-3.212v-3.563c0-7.574-0.179-14.922-0.523-22.054
			c15.298-22.62,35.057-83.049,39.054-95.549c7.895-24.686,26.258-85.839,26.258-120.441c0-12.778-1.215-24.653-3.615-35.63
			c20.171-6.061,43.346-15.03,59.615-27.405c12.006-9.132,19.722-22.36,21.728-37.249C504.879,48.982,500.968,34.211,491.864,22.244
			z M100.935,98.897C84.59,94.063,63.275,86.364,49.83,76.137c-5.331-4.055-8.754-9.91-9.641-16.487
			c-0.885-6.569,0.854-13.113,4.896-18.427c4.043-5.314,9.886-8.736,16.453-9.638c6.571-0.901,13.13,0.835,18.462,4.892
			c10.529,8.01,22.672,22.694,34.774,41.908C109.384,84.613,104.769,91.452,100.935,98.897z M256,480.654
			c-15.477,0-29.169-7.753-37.421-19.573c10.871,3.223,23.295,5.206,37.421,5.206c14.127,0,26.55-1.982,37.421-5.206
			C285.169,472.901,271.477,480.654,256,480.654z M271.673,433.8v-73.307h-31.346v73.308c-35.443-5.295-52.334-27.686-57.324-35.704
			c0.491-53.751,10.75-95.127,29.744-119.827c17.073-22.203,35.937-24.6,43.254-24.6c7.317,0,26.181,2.397,43.254,24.6
			c18.996,24.703,29.256,66.085,29.744,119.846C324.105,405.988,307.215,428.488,271.673,433.8z M369.035,275.014
			c-5.817,18.189-11.55,34.321-16.757,47.741c-6.039-25.774-15.447-47.041-28.176-63.593
			c-25.567-33.247-56.143-36.837-68.102-36.837s-42.535,3.59-68.102,36.837c-12.73,16.553-22.137,37.82-28.176,63.594
			c-5.207-13.422-10.94-29.552-16.757-47.743c-15.277-47.771-24.768-90.262-24.768-110.891c0-40.803,14.509-68.246,44.358-83.897
			C191.401,65.098,229.7,63.35,255.999,63.35s64.598,1.749,93.445,16.875c29.848,15.651,44.358,43.094,44.358,83.897
			C393.803,184.751,384.313,227.243,369.035,275.014z M471.811,59.65c-0.887,6.578-4.31,12.432-9.642,16.487
			c-13.443,10.227-34.759,17.926-51.104,22.76c-3.834-7.445-8.449-14.284-13.838-20.511C409.328,59.171,421.471,44.487,432,36.477
			c5.331-4.056,11.887-5.792,18.462-4.892c6.567,0.901,12.41,4.324,16.453,9.638C470.958,46.536,472.696,53.079,471.811,59.65z"/>
	</g>
</g>
<g>
	<g>
		<path d="M175.937,172.473c-11.34,0-20.569,9.322-20.569,20.835c0,11.51,9.228,20.841,20.569,20.841
			c11.355,0,20.582-9.332,20.582-20.841C196.518,181.795,187.292,172.473,175.937,172.473z"/>
	</g>
</g>
<g>
	<g>
		<path d="M336.051,172.473c-11.34,0-20.568,9.322-20.568,20.835c0,11.51,9.228,20.841,20.568,20.841
			c11.355,0,20.582-9.332,20.582-20.841C356.632,181.795,347.405,172.473,336.051,172.473z"/>
	</g>
</g>
<g>
	<g>
		<path d="M219.726,313.302c-6.427,0-11.658,5.284-11.658,11.808s5.231,11.812,11.658,11.812c6.435,0,11.665-5.289,11.665-11.812
			C231.391,318.586,226.161,313.302,219.726,313.302z"/>
	</g>
</g>
<g>
	<g>
		<path d="M292.266,313.303c-6.427-0.001-11.658,5.283-11.658,11.808c0,6.524,5.231,11.812,11.658,11.812
			c6.435,0,11.665-5.289,11.665-11.812C303.931,318.586,298.701,313.303,292.266,313.303z"/>
	</g>
</g>
<g>
</g>
<g>
</g>
<g>
</g>
<g>
</g>
<g>
</g>
<g>
</g>
<g>
</g>
<g>
</g>
<g>
</g>
<g>
</g>
<g>
</g>
<g>
</g>
<g>
</g>
<g>
</g>
<g>
</g>
</svg>
