<?xml version="1.0" encoding="iso-8859-1"?>
<!-- Generator: Adobe Illustrator 19.0.0, SVG Export Plug-In . SVG Version: 6.00 Build 0)  -->
<svg version="1.1" id="Layer_1" xmlns="http://www.w3.org/2000/svg" xmlns:xlink="http://www.w3.org/1999/xlink" x="0px" y="0px"
	 viewBox="0 0 511.997 511.997" style="enable-background:new 0 0 511.997 511.997;" xml:space="preserve">
<g>
	<g>
		<g>
			<path d="M203.823,206.417c-11.343,0-20.574,9.326-20.574,20.84c0,11.513,9.23,20.847,20.574,20.847
				c11.357,0,20.587-9.334,20.587-20.847C224.41,215.742,215.18,206.417,203.823,206.417z"/>
			<path d="M308.016,206.255c-11.452,0-20.742,9.403-20.742,21.003c0,11.6,9.29,21.003,20.742,21.003
				c11.439,0,20.729-9.403,20.729-21.003S319.455,206.255,308.016,206.255z"/>
			<path d="M223.044,378.079c-8.924,0-16.187,7.337-16.187,16.397c0,9.058,7.263,16.402,16.187,16.402
				c8.936,0,16.197-7.343,16.197-16.402C239.24,385.416,231.98,378.079,223.044,378.079z"/>
			<path d="M288.829,411c9,0,16.309-7.398,16.309-16.524c0-9.126-7.309-16.524-16.309-16.524c-9.011,0-16.32,7.398-16.32,16.524
				C272.508,403.602,279.818,411,288.829,411z"/>
			<path d="M504.288,108.804l-5.696-12.814l-13.367,4.238c-38.295,12.14-82.941,26.15-102.651,32.326
				c-6.69-5.403-14.204-10.151-22.511-14.211c-4.647-2.271-9.42-4.265-14.264-6.028c6.098-14.145,12.154-36.347,12.154-68.785
				h-31.353c0,25.619-4.377,42.698-8.047,52.516c-1.213,3.244-2.429,5.922-3.529,8.075c-21.534-3.949-42.554-4.625-59.024-4.625
				s-37.49,0.675-59.024,4.625c-1.101-2.153-2.316-4.831-3.529-8.075c-3.672-9.818-8.047-26.897-8.047-52.516h-31.353
				c0,32.438,6.055,54.641,12.154,68.785c-4.844,1.763-9.617,3.756-14.264,6.028c-8.307,4.059-15.82,8.807-22.511,14.211
				c-19.71-6.177-64.355-20.184-102.651-32.326L13.405,95.99l-5.696,12.814c-7.356,16.549-13.186,40.85,0.809,62.639
				c17.82,27.74,58.442,36.284,82.276,38.916c-0.318,4.053-0.493,8.196-0.493,12.444c0,37.74,8.697,60.894,19.71,90.207
				c3.669,9.766,7.463,19.865,11.392,31.671c10.202,30.656,22.537,62.268,43.538,85.796c22.818,25.564,52.603,37.991,91.058,37.991
				s68.24-12.427,91.058-37.991c21.002-23.528,33.336-55.139,43.539-85.796c3.93-11.807,7.723-21.906,11.392-31.671
				c11.012-29.314,19.71-52.467,19.71-90.207c0-4.248-0.176-8.39-0.493-12.444c23.834-2.632,64.454-11.175,82.276-38.916
				C517.474,149.654,511.643,125.353,504.288,108.804z M96.911,179.434c-19.794-1.994-51.445-8.482-62.015-24.938
				c-4.034-6.281-4.115-13.51-2.935-19.738c27.192,8.598,55.537,17.506,74.772,23.539
				C102.734,164.829,99.455,171.882,96.911,179.434z M255.997,437.113c-46.038,0-70.371-21.541-89.256-62.015
				c21.058-18.093,54.205-29.049,89.256-29.049c35.053,0,68.199,10.957,89.256,29.049
				C326.368,415.571,302.036,437.113,255.997,437.113z M372.634,301.983c-3.596,9.573-7.673,20.425-11.79,32.798
				c-1.139,3.423-2.284,6.744-3.433,10.004c-26.437-19.106-62.683-30.089-101.414-30.089c-38.731,0-74.977,10.983-101.414,30.089
				c-1.15-3.26-2.294-6.581-3.433-10.004c-4.117-12.373-8.194-23.225-11.79-32.798c-10.28-27.365-17.707-47.136-17.707-79.181
				c0-36.848,14.408-61.803,44.048-76.291c21.561-10.539,51.097-15.662,90.296-15.662c39.199,0,68.736,5.123,90.296,15.662
				c29.641,14.488,44.048,39.444,44.048,76.291C390.343,254.847,382.914,274.618,372.634,301.983z M477.114,154.472
				c-10.499,16.386-42.215,22.912-62.038,24.94c-2.543-7.545-5.82-14.589-9.815-21.115c19.234-6.034,47.58-14.941,74.772-23.539
				C481.212,140.978,481.134,148.197,477.114,154.472z"/>
		</g>
	</g>
</g>
<g>
</g>
<g>
</g>
<g>
</g>
<g>
</g>
<g>
</g>
<g>
</g>
<g>
</g>
<g>
</g>
<g>
</g>
<g>
</g>
<g>
</g>
<g>
</g>
<g>
</g>
<g>
</g>
<g>
</g>
</svg>
