<?xml version="1.0" encoding="iso-8859-1"?>
<!-- Generator: Adobe Illustrator 19.0.0, SVG Export Plug-In . SVG Version: 6.00 Build 0)  -->
<svg version="1.1" id="Layer_1" xmlns="http://www.w3.org/2000/svg" xmlns:xlink="http://www.w3.org/1999/xlink" x="0px" y="0px"
	 viewBox="0 0 512 512" style="enable-background:new 0 0 512 512;" xml:space="preserve">
<g>
	<g>
		<g>
			<path d="M224.425,205.517c0-11.51-9.224-20.831-20.578-20.831c-11.338,0-20.565,9.322-20.565,20.831
				c0,11.508,9.227,20.838,20.565,20.838C215.2,226.355,224.425,217.025,224.425,205.517z"/>
			<path d="M307.996,184.524c-11.448,0-20.734,9.399-20.734,20.994s9.286,20.994,20.734,20.994c11.434,0,20.72-9.399,20.72-20.994
				C328.717,193.922,319.43,184.524,307.996,184.524z"/>
			<path d="M295.875,302.052c-10.824-8.311-24.987-12.888-39.876-12.888c-14.89,0-29.052,4.577-39.876,12.888
				c-11.878,9.121-18.691,22.14-18.691,35.72c0,13.58,6.812,26.598,18.691,35.719c10.824,8.311,24.987,12.888,39.876,12.888
				c14.89,0,29.052-4.577,39.876-12.888c11.878-9.121,18.691-22.14,18.691-35.719C314.566,324.192,307.754,311.173,295.875,302.052z
				 M256,355.04c-16.045,0-27.227-9.1-27.227-17.268c0-8.168,11.181-17.268,27.227-17.268c16.046,0,27.226,9.1,27.226,17.268
				C283.226,345.94,272.045,355.04,256,355.04z"/>
			<path d="M503.154,79.879l-5.693-12.809l-13.361,4.236c-45.025,14.274-98.058,30.904-116.856,36.792
				c-3.077-1.857-6.281-3.607-9.619-5.24c-33.765-16.505-74.169-18.413-101.623-18.413s-67.858,1.909-101.623,18.413
				c-3.34,1.633-6.544,3.383-9.619,5.24c-18.8-5.889-71.833-22.518-116.858-36.792l-13.361-4.236L8.846,79.879
				c-11.999,26.997-11.79,49.977,0.624,68.301c19.427,28.676,62.874,34.755,86.054,35.894c-0.955,6.695-1.45,13.683-1.45,20.971
				c0,36.863,8.491,59.465,19.242,88.08c3.576,9.517,7.273,19.358,11.101,30.861c9.958,29.926,22.003,60.787,42.523,83.778
				c22.323,25.008,51.454,37.166,89.061,37.166c37.606,0,66.738-12.157,89.061-37.166c20.522-22.99,32.566-53.852,42.523-83.778
				c3.828-11.502,7.525-21.344,11.101-30.861c10.751-28.615,19.242-51.216,19.242-88.08c0-7.288-0.495-14.275-1.45-20.971
				c23.181-1.139,66.628-7.219,86.054-35.894C514.944,129.857,515.153,106.877,503.154,79.879z M111.318,140.064
				c-2.629,4.082-4.948,8.39-6.979,12.898c-17.936-0.172-56.676-4.229-68.94-22.383c-4.235-6.268-5.081-14.587-2.547-24.83
				c30.527,9.655,62.602,19.733,84.106,26.479C114.95,134.747,113.063,137.355,111.318,140.064z M369.347,282.102
				c-3.507,9.336-7.483,19.917-11.5,31.987C336.373,378.62,313.782,413.588,256,413.588s-80.374-34.969-101.847-99.499
				c-4.017-12.069-7.992-22.651-11.5-31.987c-10.008-26.639-17.239-45.887-17.239-77.058c0-35.76,13.976-59.976,42.726-74.03
				c20.964-10.248,49.705-15.23,87.86-15.23s66.895,4.982,87.86,15.23c28.75,14.054,42.726,38.268,42.726,74.03
				C386.586,236.216,379.355,255.463,369.347,282.102z M476.601,130.577c-12.269,18.161-51.015,22.213-68.94,22.384
				c-2.032-4.508-4.349-8.816-6.979-12.898c-1.746-2.709-3.631-5.317-5.638-7.837c21.504-6.746,53.577-16.824,84.106-26.479
				C481.682,115.991,480.835,124.31,476.601,130.577z"/>
		</g>
	</g>
</g>
<g>
</g>
<g>
</g>
<g>
</g>
<g>
</g>
<g>
</g>
<g>
</g>
<g>
</g>
<g>
</g>
<g>
</g>
<g>
</g>
<g>
</g>
<g>
</g>
<g>
</g>
<g>
</g>
<g>
</g>
</svg>
