<?xml version="1.0" encoding="iso-8859-1"?>
<!-- Generator: Adobe Illustrator 19.0.0, SVG Export Plug-In . SVG Version: 6.00 Build 0)  -->
<svg version="1.1" id="Layer_1" xmlns="http://www.w3.org/2000/svg" xmlns:xlink="http://www.w3.org/1999/xlink" x="0px" y="0px"
	 viewBox="0 0 512 512" style="enable-background:new 0 0 512 512;" xml:space="preserve">
<g>
	<g>
		<g>
			<path d="M203.837,224.598c11.355,0,20.582-9.332,20.582-20.843c0-11.513-9.227-20.835-20.582-20.835
				c-11.34,0-20.569,9.324-20.569,20.835C183.268,215.266,192.496,224.598,203.837,224.598z"/>
			<path d="M308.008,224.753c11.436,0,20.724-9.401,20.724-20.998c0-11.597-9.288-20.998-20.724-20.998
				c-11.45,0-20.738,9.401-20.738,20.998C287.27,215.352,296.558,224.753,308.008,224.753z"/>
			<path d="M256,266.435c-35.884,0-55.93,24.624-63.945,42.672L90.852,345.219L256,449.268l165.149-104.05l-101.204-36.112
				C311.93,291.06,291.884,266.435,256,266.435z M256,412.22l-93.879-59.149l54.978-19.617l2.188-7.808
				c0.078-0.279,8.138-27.863,36.714-27.863c11.757,0,21.034,4.264,28.361,13.037c5.757,6.894,8.138,14.151,8.369,14.887
				l2.019,7.693l55.132,19.672L256,412.22z"/>
			<path d="M467.722,216.748c-5.53-13.957-11.248-28.389-17.185-45.307c-15.09-42.999-33.285-87.282-63.972-119.881
				C353.908,16.866,311.199,0,256,0s-97.908,16.866-130.566,51.559c-30.687,32.599-48.88,76.883-63.972,119.881
				c-5.937,16.918-11.655,31.35-17.185,45.307c-16.31,41.166-29.192,73.681-29.192,126.348c0,35.762,8.554,66.482,25.421,91.307
				c14.729,21.676,35.924,39.03,62.997,51.578C153.817,509.303,214.632,512,256,512s102.183-2.697,152.498-26.018
				c27.072-12.549,48.267-29.902,62.997-51.578c16.869-24.826,25.421-55.546,25.421-91.307
				C496.915,290.428,484.032,257.914,467.722,216.748z M256,480.653c-142.977,0-209.568-43.71-209.568-137.557
				c0-46.684,11.32-75.255,26.989-114.801c5.379-13.578,11.477-28.969,17.62-46.473c13.948-39.744,30.534-80.43,57.218-108.778
				C175.038,44.597,209.274,31.347,256,31.347s80.962,13.25,107.742,41.698c26.685,28.348,43.27,69.033,57.218,108.777
				c6.143,17.505,12.241,32.894,17.62,46.474c15.668,39.546,26.989,68.117,26.989,114.801
				C465.568,436.943,398.976,480.653,256,480.653z"/>
		</g>
	</g>
</g>
<g>
</g>
<g>
</g>
<g>
</g>
<g>
</g>
<g>
</g>
<g>
</g>
<g>
</g>
<g>
</g>
<g>
</g>
<g>
</g>
<g>
</g>
<g>
</g>
<g>
</g>
<g>
</g>
<g>
</g>
</svg>
