<?xml version="1.0" encoding="iso-8859-1"?>
<!-- Generator: Adobe Illustrator 19.0.0, SVG Export Plug-In . SVG Version: 6.00 Build 0)  -->
<svg version="1.1" id="Layer_1" xmlns="http://www.w3.org/2000/svg" xmlns:xlink="http://www.w3.org/1999/xlink" x="0px" y="0px"
	 viewBox="0 0 512 512" style="enable-background:new 0 0 512 512;" xml:space="preserve">
<g>
	<g>
		<g>
			<path d="M485.183,190.297c-17.58-6.394-28.928-14.979-40.941-24.068c-18.727-14.168-38.065-28.783-76.516-30.379
				c-11.148-11.509-24.401-20.452-39.869-26.891v-31.95c1.579-26.551,24.371-46.967,50.974-45.595
				c9.524,0.493,18.286,4.665,24.672,11.75s9.631,16.229,9.138,25.754c-0.726,14.003-12.703,24.812-26.711,24.079
				c-9.476-0.491-16.785-8.599-16.295-18.076l-31.305-1.622c-1.385,26.738,19.242,49.617,45.979,51.003
				c0.996,0.051,1.984,0.077,2.971,0.077c29.97-0.001,55.097-23.571,56.666-53.839c1.913-36.923-26.571-68.517-63.492-70.43
				c-44.012-2.273-81.643,31.659-83.922,75.656l-0.012,24.09c-12.433-2.28-25.926-3.414-40.519-3.414
				c-14.589,0-28.078,1.133-40.51,3.412V76.576l-0.021-0.811c-2.28-43.996-39.937-77.943-83.922-75.656
				c-36.921,1.913-65.404,33.508-63.492,70.43c1.568,30.271,26.694,53.84,56.665,53.839c0.984,0,1.977-0.025,2.972-0.077
				c26.737-1.385,47.363-24.265,45.979-51.003l-31.305,1.622c0.491,9.476-6.819,17.585-16.295,18.076
				c-14.003,0.731-25.984-10.076-26.711-24.079c-0.493-9.524,2.751-18.67,9.138-25.754s15.148-11.256,24.672-11.75
				c26.624-1.394,49.395,19.043,50.974,45.595v31.95c-15.468,6.439-28.721,15.382-39.869,26.89
				c-38.451,1.597-57.789,16.212-76.516,30.379c-12.013,9.089-23.361,17.674-40.941,24.068l-19.489,7.089L19.467,214.2
				c1.041,1.441,10.651,14.396,27.507,25.287c15.306,9.889,31.65,14.888,48.265,14.887c0.948,0,1.895-0.025,2.845-0.057
				c-4.668,27.889-9.113,54.164-20.952,62.446l-17.466,12.219l16.871,13.029c65.373,50.483,85.808,89.197,100.728,117.463
				C192.756,488.82,204.991,512,256,512s63.245-23.18,78.736-52.528c14.92-28.267,35.354-66.98,100.728-117.463l16.871-13.029
				l-17.466-12.219c-11.84-8.282-16.285-34.558-20.952-62.446c0.949,0.032,1.898,0.057,2.845,0.057
				c16.613,0,32.961-4.999,48.265-14.887c16.855-10.891,26.466-23.845,27.507-25.287l12.139-16.815L485.183,190.297z
				 M59.173,209.877c10.821-6.03,19.497-12.594,27.5-18.648c10.827-8.192,20.281-15.334,33.33-19.692
				c-7.671,16.247-12.49,33.607-16.094,50.749C84.986,225.355,69.524,217.725,59.173,209.877z M233.652,369.125
				c-9.188-9.184-13.374-18.23-13.374-22.748c0-4.406,0.914-5.002,3.803-6.217c7.403-3.115,21.762-3.475,31.919-3.475
				s24.514,0.36,31.919,3.475c2.889,1.216,3.803,1.811,3.803,6.217c0,4.519-4.185,13.565-13.374,22.748
				c-8.726,8.721-17.848,13.285-22.348,13.285S242.378,377.847,233.652,369.125z M307.014,444.841
				c-11.737,22.235-16.857,31.92-35.341,34.817v-69.035c25.599-9.629,51.395-39.734,51.395-64.247
				c0-16.641-7.951-28.782-22.994-35.112c-10.008-4.211-22.778-5.928-44.075-5.928s-34.067,1.718-44.075,5.928
				c-15.042,6.329-22.994,18.471-22.994,35.112c0,24.512,25.796,54.618,51.395,64.247v69.035
				c-18.482-2.898-23.603-12.583-35.341-34.817c-14.337-27.161-35.52-67.296-95.963-117.022
				c11.478-17.546,15.669-42.581,20.042-68.705C139.871,194.549,151.044,127.788,256,127.788s116.13,66.761,126.935,131.323
				c4.373,26.125,8.564,51.16,20.042,68.706C342.535,377.545,321.351,417.679,307.014,444.841z M408.091,222.284
				c-3.604-17.142-8.423-34.5-16.094-50.749c13.048,4.358,22.503,11.501,33.33,19.692c8.002,6.054,16.677,12.617,27.496,18.646
				C442.466,217.729,427.005,225.354,408.091,222.284z"/>
			<path d="M203.838,199.245c-11.34,0-20.569,9.324-20.569,20.835c0,11.511,9.229,20.843,20.569,20.843
				c11.355,0,20.582-9.332,20.582-20.843C224.419,208.568,215.193,199.245,203.838,199.245z"/>
			<path d="M308.009,199.083c-11.45,0-20.738,9.401-20.738,20.998c0,11.597,9.288,20.998,20.738,20.998
				c11.436,0,20.724-9.401,20.724-20.998C328.732,208.484,319.445,199.083,308.009,199.083z"/>
		</g>
	</g>
</g>
<g>
</g>
<g>
</g>
<g>
</g>
<g>
</g>
<g>
</g>
<g>
</g>
<g>
</g>
<g>
</g>
<g>
</g>
<g>
</g>
<g>
</g>
<g>
</g>
<g>
</g>
<g>
</g>
<g>
</g>
</svg>
