<?xml version="1.0" encoding="iso-8859-1"?>
<!-- Generator: Adobe Illustrator 19.0.0, SVG Export Plug-In . SVG Version: 6.00 Build 0)  -->
<svg version="1.1" id="Layer_1" xmlns="http://www.w3.org/2000/svg" xmlns:xlink="http://www.w3.org/1999/xlink" x="0px" y="0px"
	 viewBox="0 0 511.999 511.999" style="enable-background:new 0 0 511.999 511.999;" xml:space="preserve">
<g>
	<g>
		<g>
			<path d="M485.887,189.31c-17.634-6.413-29.018-15.025-41.068-24.142c-18.783-14.21-38.18-28.87-76.749-30.471
				c-9.403-9.706-20.298-17.596-32.751-23.701c5.199-38.342,38.799-70.864,63.238-82.692L384.861,0
				c-19.32,9.35-38.852,25.656-53.593,44.738c-13.535,17.524-22.354,36.452-26.075,55.643c-14.77-3.484-31.141-5.214-49.194-5.214
				c-18.053,0-34.424,1.73-49.194,5.214c-3.721-19.192-12.539-38.119-26.075-55.643C165.994,25.656,146.46,9.35,127.142,0
				l-13.697,28.303c24.44,11.829,58.04,44.35,63.238,82.692c-12.454,6.105-23.349,13.994-32.751,23.701
				c-38.568,1.602-57.966,16.261-76.749,30.471c-12.05,9.117-23.432,17.729-41.068,24.142l-19.549,7.109l12.176,16.867
				c1.043,1.446,10.683,14.44,27.591,25.363c15.352,9.919,31.747,14.932,48.412,14.932c0.951,0,1.902-0.025,2.855-0.058
				c-4.682,27.975-9.141,54.329-21.017,62.638l-17.52,12.256l16.923,13.069c65.573,50.638,86.071,89.469,101.037,117.823
				c15.538,29.437,27.811,52.689,78.977,52.689s63.437-23.252,78.977-52.689c14.966-28.354,35.464-67.185,101.037-117.823
				l16.923-13.069l-17.52-12.257c-11.876-8.308-16.335-34.663-21.017-62.638c0.952,0.032,1.904,0.058,2.855,0.058
				c16.664-0.001,33.062-5.014,48.412-14.932c16.908-10.923,26.548-23.917,27.591-25.363l12.176-16.867L485.887,189.31z
				 M58.571,208.949c10.853-6.049,19.557-12.632,27.584-18.706c10.86-8.216,20.344-15.381,33.43-19.753
				c-7.693,16.297-12.527,33.71-16.142,50.903C84.462,224.477,68.953,216.822,58.571,208.949z M233.585,368.686
				c-9.217-9.211-13.415-18.285-13.415-22.818c0-4.42,0.917-5.016,3.815-6.235c7.426-3.124,21.829-3.486,32.016-3.486
				c10.188,0,24.59,0.362,32.016,3.486c2.898,1.219,3.815,1.815,3.815,6.235c0,4.533-4.198,13.608-13.415,22.818
				c-8.753,8.747-17.902,13.326-22.417,13.326C251.486,382.011,242.337,377.434,233.585,368.686z M307.171,444.634
				c-11.772,22.303-16.909,32.016-35.448,34.924v-69.247c25.677-9.658,51.553-39.856,51.553-64.444
				c0-16.692-7.975-28.87-23.065-35.218c-10.039-4.224-22.848-5.947-44.21-5.947c-21.363,0-34.172,1.723-44.21,5.947
				c-15.089,6.348-23.065,18.526-23.065,35.218c0,24.587,25.876,54.785,51.553,64.444v69.247
				c-18.539-2.906-23.676-12.621-35.448-34.924c-14.381-27.245-35.629-67.502-96.259-117.382
				c11.513-17.599,15.717-42.711,20.104-68.916c10.839-64.76,22.047-131.727,127.325-131.727s116.486,66.966,127.324,131.727
				c4.386,26.205,8.589,51.317,20.104,68.916C342.8,377.131,321.552,417.388,307.171,444.634z M408.558,221.39
				c-3.615-17.192-8.448-34.602-16.141-50.898c13.088,4.372,22.571,11.535,33.43,19.753c8.018,6.066,16.71,12.642,27.546,18.685
				C442.999,216.785,427.48,224.442,408.558,221.39z"/>
			<path d="M203.678,198.285c-11.375,0-20.632,9.351-20.632,20.899c0,11.546,9.257,20.905,20.632,20.905
				c11.39,0,20.646-9.36,20.646-20.905C224.324,207.636,215.068,198.285,203.678,198.285z"/>
			<path d="M308.169,198.123c-11.485,0-20.802,9.43-20.802,21.063c0,11.633,9.317,21.063,20.802,21.063
				c11.471,0,20.788-9.43,20.788-21.063C328.957,207.551,319.64,198.123,308.169,198.123z"/>
		</g>
	</g>
</g>
<g>
</g>
<g>
</g>
<g>
</g>
<g>
</g>
<g>
</g>
<g>
</g>
<g>
</g>
<g>
</g>
<g>
</g>
<g>
</g>
<g>
</g>
<g>
</g>
<g>
</g>
<g>
</g>
<g>
</g>
</svg>
