<?xml version="1.0" encoding="iso-8859-1"?>
<!-- Generator: Adobe Illustrator 19.0.0, SVG Export Plug-In . SVG Version: 6.00 Build 0)  -->
<svg version="1.1" id="Layer_1" xmlns="http://www.w3.org/2000/svg" xmlns:xlink="http://www.w3.org/1999/xlink" x="0px" y="0px"
	 viewBox="0 0 512.001 512.001" style="enable-background:new 0 0 512.001 512.001;" xml:space="preserve">
<g>
	<g>
		<g>
			<path d="M203.923,172.187c-11.322,0-20.536,9.308-20.536,20.801c0,11.492,9.213,20.808,20.536,20.808
				c11.336,0,20.549-9.317,20.549-20.808C224.471,181.494,215.259,172.187,203.923,172.187z"/>
			<path d="M307.923,172.024c-11.431,0-20.704,9.385-20.704,20.964c0,11.578,9.273,20.964,20.704,20.964
				c11.418,0,20.69-9.385,20.69-20.964C328.613,181.409,319.34,172.024,307.923,172.024z"/>
			<path d="M452.855,192.704c-5.104-11.203-10.382-22.787-15.848-36.332c-1.819-4.507-3.688-9.031-5.622-13.55
				c11.044-3.982,21.063-10.576,29.181-19.393c12.536-13.617,19.44-31.314,19.44-49.832C480.005,33.015,446.989,0,406.407,0
				c-26.326,0-49.866,13.682-62.95,35.373c-24.509-12.362-53.435-18.436-87.457-18.436c-34.022,0-62.947,6.074-87.457,18.436
				C155.459,13.682,131.919,0,105.593,0C65.012,0,31.995,33.015,31.995,73.598c0,18.518,6.904,36.216,19.44,49.833
				c8.118,8.817,18.137,15.411,29.181,19.393c-1.934,4.519-3.803,9.043-5.622,13.55c-5.466,13.545-10.745,25.129-15.848,36.332
				c-15.324,33.632-27.428,60.197-27.428,103.604c0,29.804,8.194,55.401,24.356,76.083c13.86,17.737,33.686,31.89,58.928,42.064
				c22.238,8.963,46.693,14.132,70.341,17.091v56.933l70.657,23.52l70.657-23.52v-56.933c23.649-2.959,48.102-8.128,70.341-17.091
				c25.242-10.174,45.068-24.326,58.928-42.064c16.161-20.682,24.356-46.279,24.356-76.083
				C480.283,252.901,468.179,226.336,452.855,192.704z M406.407,31.295c23.325,0,42.303,18.976,42.303,42.303
				c0,19.038-12.999,35.604-30.754,40.689c-10.708-20.423-23.732-39.717-40.969-55.639c-2.349-2.171-4.761-4.244-7.221-6.242
				C377.184,39.489,390.958,31.295,406.407,31.295z M63.291,73.598c0-23.326,18.977-42.303,42.303-42.303
				c15.448,0,29.222,8.194,36.642,21.11c-2.461,1.999-4.872,4.072-7.221,6.242c-17.236,15.922-30.26,35.217-40.969,55.639
				C76.29,109.202,63.291,92.636,63.291,73.598z M240.352,473.809l-23.715-7.894v-31.564c8.254,0.474,16.21,0.743,23.715,0.885
				V473.809z M239.397,342.428c-7.492-7.488-10.284-14.361-10.284-16.935c0-1.172,0.139-1.774,0.207-2
				c1.057-0.898,5.863-3.347,26.68-3.347s25.623,2.448,26.68,3.347c0.068,0.225,0.207,0.828,0.207,2
				c0,2.573-2.793,9.447-10.284,16.935c-7.047,7.043-13.951,10.212-16.603,10.212C253.349,352.639,246.444,349.471,239.397,342.428z
				 M295.363,465.914l-23.714,7.894v-38.573c7.505-0.142,15.461-0.411,23.714-0.885V465.914z M385.3,385.428
				c-28.163,11.351-65.453,17.425-113.652,18.483v-23.374c21.731-8.939,42.534-33.933,42.534-55.044
				c0-14.721-7.34-25.917-20.668-31.525c-8.635-3.633-19.504-5.116-37.515-5.116c-18.01,0-28.879,1.482-37.515,5.116
				c-13.328,5.607-20.668,16.802-20.668,31.525c0,21.111,20.804,46.105,42.534,55.044v23.374
				c-48.2-1.058-85.489-7.132-113.652-18.483c-42.855-17.273-63.688-46.424-63.688-89.121c0-21.256,0-36.614,24.611-90.629
				c5.001-10.974,10.669-23.412,16.392-37.595c12.765-31.631,27.93-63.998,52.234-86.449c24.67-22.79,56.367-33.404,99.751-33.404
				s75.081,10.614,99.751,33.404c24.304,22.45,39.469,54.817,52.234,86.449c5.724,14.183,11.392,26.621,16.392,37.595
				c14.287,31.359,24.611,54.015,24.611,90.629C448.988,339.004,428.155,368.155,385.3,385.428z"/>
		</g>
	</g>
</g>
<g>
</g>
<g>
</g>
<g>
</g>
<g>
</g>
<g>
</g>
<g>
</g>
<g>
</g>
<g>
</g>
<g>
</g>
<g>
</g>
<g>
</g>
<g>
</g>
<g>
</g>
<g>
</g>
<g>
</g>
</svg>
