<?xml version="1.0" encoding="iso-8859-1"?>
<!-- Generator: Adobe Illustrator 19.0.0, SVG Export Plug-In . SVG Version: 6.00 Build 0)  -->
<svg version="1.1" id="Layer_1" xmlns="http://www.w3.org/2000/svg" xmlns:xlink="http://www.w3.org/1999/xlink" x="0px" y="0px"
	 viewBox="0 0 512 512" style="enable-background:new 0 0 512 512;" xml:space="preserve">
<g>
	<g>
		<path d="M295.181,348.6c-10.634-8.165-24.549-12.663-39.181-12.663c-14.631,0-28.547,4.497-39.181,12.663
			c-11.661,8.954-18.349,21.733-18.349,35.06s6.688,26.106,18.349,35.059c10.634,8.165,24.549,12.663,39.181,12.663
			c14.631,0,28.547-4.497,39.181-12.663c11.661-8.954,18.349-21.733,18.349-35.059C313.53,370.333,306.842,357.554,295.181,348.6z
			 M256,400.815c-15.89,0-26.963-9.042-26.963-17.155c0-8.115,11.073-17.155,26.963-17.155s26.963,9.042,26.963,17.155
			S271.889,400.815,256,400.815z"/>
	</g>
</g>
<g>
	<g>
		<path d="M482.824,294.141L512,265.069l-29.176-29.072l19.82-36.119l-36.177-19.655l8.915-40.094l-40.004-8.969l-2.074-40.828
			l-40.781,1.713l-12.312-38.835l-38.961,11.775l-21.412-34.553l-34.873,20.81L256,22.859l-28.963,28.383l-34.873-20.81
			l-21.411,34.553l-38.961-11.775L119.48,92.045l-40.781-1.712l-2.073,40.828l-40.004,8.969l8.915,40.094L9.359,199.877
			l19.819,36.12L0,265.069l29.176,29.071L9.358,330.259l36.177,19.655l-8.915,40.094l40.004,8.969l2.074,40.828l44.565-1.871
			c3.807,4.354,7.906,8.467,12.312,12.31c29.174,25.446,70.817,38.896,120.426,38.896c49.609,0,91.252-13.451,120.426-38.896
			c4.407-3.843,8.505-7.957,12.311-12.31l44.566,1.871l2.073-40.828l40.004-8.969l-8.915-40.094l36.176-19.655L482.824,294.141z
			 M356.335,427.209c-23.525,20.52-58.221,31.365-100.334,31.365s-76.809-10.846-100.334-31.365
			c-24.283-21.181-36.596-51.98-36.596-91.543c0-40.173,2.629-81.222,21.696-109.323c7.262-10.703,29.361-43.272,115.234-43.272
			s107.972,32.569,115.234,43.272c19.068,28.102,21.696,69.151,21.696,109.323C392.93,375.229,380.618,406.029,356.335,427.209z
			 M444.974,288.704l16.105,29.35l-29.452,16.002l7.293,32.801l-18.634,4.179c2.125-11.181,3.212-22.992,3.212-35.369
			c0-88.618-12.943-183.162-167.498-183.162S88.503,247.048,88.503,335.666c0,12.377,1.086,24.188,3.212,35.368l-18.634-4.177
			l7.293-32.801l-29.452-16.002l16.105-29.35l-23.72-23.634l23.72-23.635l-16.105-29.349l29.453-16.002l-7.293-32.801l32.891-7.374
			l1.716-33.763l33.864,1.421l10.263-32.371l32.558,9.841l17.94-28.95l29.292,17.479l24.396-23.907l24.396,23.907l29.291-17.48
			l17.939,28.951l32.558-9.841l10.264,32.371l33.864-1.422l1.716,33.764l32.891,7.374l-7.293,32.801l29.452,16.002l-16.105,29.35
			l23.719,23.635L444.974,288.704z"/>
	</g>
</g>
<g>
	<g>
		<path d="M205.134,264.543c-11.058,0-20.057,9.092-20.057,20.317c0,11.224,8.999,20.324,20.057,20.324
			c11.073-0.001,20.07-9.1,20.07-20.324C225.204,273.633,216.206,264.543,205.134,264.543z"/>
	</g>
</g>
<g>
	<g>
		<path d="M306.714,264.384c-11.165,0-20.222,9.167-20.222,20.476s9.057,20.476,20.222,20.476c11.152,0,20.209-9.167,20.209-20.476
			S317.866,264.384,306.714,264.384z"/>
	</g>
</g>
<g>
</g>
<g>
</g>
<g>
</g>
<g>
</g>
<g>
</g>
<g>
</g>
<g>
</g>
<g>
</g>
<g>
</g>
<g>
</g>
<g>
</g>
<g>
</g>
<g>
</g>
<g>
</g>
<g>
</g>
</svg>
