<?xml version="1.0" encoding="iso-8859-1"?>
<!-- Generator: Adobe Illustrator 19.0.0, SVG Export Plug-In . SVG Version: 6.00 Build 0)  -->
<svg version="1.1" id="Layer_1" xmlns="http://www.w3.org/2000/svg" xmlns:xlink="http://www.w3.org/1999/xlink" x="0px" y="0px"
	 viewBox="0 0 512 512" style="enable-background:new 0 0 512 512;" xml:space="preserve">
<g>
	<g>
		<g>
			<path d="M203.839,210.583c11.355,0,20.582-9.332,20.582-20.843c0-11.513-9.227-20.835-20.582-20.835
				c-11.34,0-20.569,9.324-20.569,20.835C183.27,201.251,192.498,210.583,203.839,210.583z"/>
			<path d="M308.011,210.738c11.436,0,20.724-9.401,20.724-20.998c0-11.597-9.288-20.998-20.724-20.998
				c-11.45,0-20.738,9.401-20.738,20.998C287.272,201.337,296.56,210.738,308.011,210.738z"/>
			<path d="M474.286,282.159c-1.796-1.836-3.648-3.605-5.54-5.321c0.069-2.163,0.11-4.312,0.11-6.431
				c0-44.117-5.57-81.242-16.904-112.195c11.833-5.703,22.227-14.193,30.254-24.935c12.414-16.616,18.084-37.137,15.962-57.781
				c-2.252-21.917-12.903-41.643-29.994-55.548C451.086,6.044,429.605-0.377,407.688,1.879
				c-17.895,1.839-34.322,9.248-47.504,21.428c-8.543,7.893-15.335,17.609-19.904,28.258C315.614,43.849,287.496,39.954,256,39.954
				s-59.614,3.895-84.279,11.612c-4.569-10.65-11.361-20.365-19.904-28.258c-13.184-12.179-29.609-19.59-47.504-21.429
				C82.395-0.373,60.914,6.044,43.825,19.948C26.736,33.854,16.084,53.581,13.832,75.497c-2.121,20.644,3.547,41.165,15.962,57.781
				c8.027,10.743,18.42,19.232,30.254,24.935c-11.334,30.952-16.904,68.077-16.904,112.195c0,2.118,0.04,4.267,0.11,6.431
				c-1.892,1.716-3.743,3.485-5.54,5.321C13.393,307.012,0,340.586,0,376.696c0,73.815,60.052,133.867,133.867,133.867h244.267
				c73.814,0,133.866-60.052,133.866-133.867C512,340.586,498.607,307.012,474.286,282.159z M410.893,33.062
				c13.584-1.396,26.904,2.582,37.498,11.202c10.595,8.62,17.198,20.85,18.594,34.437c1.316,12.798-2.197,25.516-9.891,35.814
				c-4.849,6.491-11.084,11.659-18.178,15.191c-3.194-5.692-6.639-11.13-10.355-16.302c-15.354-21.372-35.141-38.122-59.222-50.197
				C376.62,46.635,392.23,34.979,410.893,33.062z M162.7,88.316c25.216-11.29,56.606-17.015,93.3-17.015s68.085,5.725,93.3,17.015
				c22.46,10.056,40.058,24.245,53.802,43.376c21.27,29.608,32.49,70.322,34.175,124.13c-17.976-8.502-38.071-12.991-59.144-12.991
				c-57.274,0-103.906,20.856-122.133,30.33c-18.227-9.474-64.859-30.33-122.133-30.33c-21.074,0-41.168,4.489-59.144,12.991
				c1.685-53.808,12.906-94.521,34.175-124.13C122.642,112.561,140.241,98.372,162.7,88.316z M54.906,114.515
				c-7.694-10.296-11.207-23.016-9.891-35.814c1.396-13.587,8-25.817,18.594-34.437c10.594-8.619,23.909-12.601,37.498-11.202
				c18.663,1.917,34.273,13.573,41.553,30.144C118.579,75.28,98.792,92.03,83.439,113.403c-3.716,5.172-7.161,10.611-10.355,16.302
				C65.991,126.174,59.756,121.006,54.906,114.515z M378.133,479.217H133.867c-56.53,0-102.52-45.99-102.52-102.52
				c0-58.446,44.074-102.52,102.52-102.52c63.396,0,113.475,29.969,113.949,30.257l8.175,4.976l8.169-4.961
				c0.498-0.303,50.577-30.272,113.973-30.272c58.446,0,102.52,44.074,102.52,102.52
				C480.653,433.226,434.663,479.217,378.133,479.217z"/>
			<path d="M135.739,332.406c-24.422,0-44.29,19.869-44.29,44.29c0,24.421,19.869,44.29,44.29,44.29
				c24.421,0,44.29-19.869,44.29-44.29C180.029,352.275,160.16,332.406,135.739,332.406z M135.739,389.641
				c-7.137,0-12.943-5.807-12.943-12.943c0-7.137,5.807-12.943,12.943-12.943s12.943,5.807,12.943,12.943
				C148.682,383.834,142.875,389.641,135.739,389.641z"/>
			<path d="M376.261,332.406c-24.422,0-44.29,19.869-44.29,44.29c0,24.421,19.869,44.29,44.29,44.29s44.29-19.869,44.29-44.29
				C420.552,352.275,400.684,332.406,376.261,332.406z M376.261,389.641c-7.137,0-12.943-5.807-12.943-12.943
				c0-7.137,5.806-12.943,12.943-12.943s12.943,5.807,12.943,12.943C389.205,383.834,383.398,389.641,376.261,389.641z"/>
		</g>
	</g>
</g>
<g>
</g>
<g>
</g>
<g>
</g>
<g>
</g>
<g>
</g>
<g>
</g>
<g>
</g>
<g>
</g>
<g>
</g>
<g>
</g>
<g>
</g>
<g>
</g>
<g>
</g>
<g>
</g>
<g>
</g>
</svg>
