<?xml version="1.0" encoding="iso-8859-1"?>
<!-- Generator: Adobe Illustrator 19.0.0, SVG Export Plug-In . SVG Version: 6.00 Build 0)  -->
<svg version="1.1" id="Layer_1" xmlns="http://www.w3.org/2000/svg" xmlns:xlink="http://www.w3.org/1999/xlink" x="0px" y="0px"
	 viewBox="0 0 512.001 512.001" style="enable-background:new 0 0 512.001 512.001;" xml:space="preserve">
<g>
	<g>
		<g>
			<path d="M203.836,245.606c-11.341,0-20.569,9.324-20.569,20.836c0,11.511,9.229,20.843,20.569,20.843
				c11.355,0,20.583-9.332,20.583-20.843C224.419,254.93,215.191,245.606,203.836,245.606z"/>
			<path d="M308.01,245.444c-11.45,0-20.739,9.401-20.739,20.999c0,11.598,9.288,20.999,20.739,20.999
				c11.437,0,20.725-9.401,20.725-20.999C328.735,254.845,319.446,245.444,308.01,245.444z"/>
			<path d="M219.852,415.643c-9.79,0-17.756,8.049-17.756,17.986c0,9.936,7.966,17.992,17.756,17.992
				c9.802,0,17.768-8.055,17.768-17.992C237.62,423.693,229.654,415.643,219.852,415.643z"/>
			<path d="M292.016,415.505c-9.885,0-17.903,8.115-17.903,18.126c0,10.011,8.018,18.126,17.903,18.126
				c9.872,0,17.89-8.115,17.89-18.126C309.906,423.619,301.889,415.505,292.016,415.505z"/>
			<path d="M465.76,12.397L463.209,2.25l-10.35-1.536c-1.809-0.268-44.707-6.249-80.768,21.756
				c-19.531,15.167-33.053,36.961-40.395,64.995c-1.21-7.754-4.405-14.772-9.518-20.733c-15.521-18.095-44.555-21.893-66.177-21.893
				c-21.623,0-50.656,3.798-66.177,21.893c-5.114,5.961-8.308,12.979-9.518,20.733c-7.341-28.034-20.864-49.828-40.395-64.994
				C103.849-5.535,60.949,0.445,59.142,0.714L48.792,2.25l-2.551,10.147c-0.301,1.198-7.306,29.729-1.397,64.232
				c5.156,30.101,21.238,70.125,67.609,96.264c-5.734,20.653-7.809,46.008-4.433,77.138c4.196,38.688,13.335,61.724,23.917,88.396
				c4.113,10.367,8.366,21.088,12.684,33.642c2.495,7.254,2.872,28.025,2.343,40.452l-0.015,0.675
				c0,47.041,23.227,70.799,42.711,82.446c22.62,13.52,48.561,16.358,66.339,16.358c17.778,0,43.719-2.838,66.339-16.358
				c19.485-11.647,42.711-35.405,42.711-82.446l-0.015-0.675c-0.519-12.056-0.134-33.25,2.343-40.452
				c4.319-12.557,8.572-23.277,12.684-33.643c10.582-26.672,19.721-49.706,23.917-88.395c3.376-31.13,1.302-56.485-4.433-77.138
				c46.37-26.139,62.452-66.161,67.608-96.263C473.066,42.126,466.061,13.595,465.76,12.397z M213.618,87.141
				c5.795-6.758,22.035-10.955,42.383-10.955s36.587,4.198,42.383,10.955c1.551,1.807,3.208,4.681,2.248,10.913
				c-2.342,15.202-5.378,32.486-7.722,45.411l-36.908-16.775l-36.908,16.775c-2.344-12.926-5.38-30.21-7.722-45.412
				C210.411,91.823,212.067,88.949,213.618,87.141z M124.514,143.651c-26.65-16.144-42.979-40.063-48.593-71.294
				c-2.934-16.322-2.24-31.235-1.13-40.925c11.555,0.473,30.148,3.44,46.174,16.019c16.953,13.305,27.739,34.651,32.17,63.475
				C142.339,119.198,132.417,129.879,124.514,143.651z M306.257,468.734c-17.35,10.371-38.934,11.918-50.256,11.918
				s-32.907-1.547-50.256-11.918c-18.394-10.994-27.373-29.06-27.446-55.218c0.053-1.307,0.13-3.486,0.181-6.249
				c17.618-16.308,46.674-26.264,77.521-26.264s59.902,9.955,77.521,26.264c0.051,2.763,0.128,4.941,0.181,6.249
				C333.63,439.674,324.65,457.739,306.257,468.734z M372.816,246.65c-3.738,34.46-11.748,54.652-21.89,80.215
				c-4.245,10.7-8.635,21.765-13.19,35.01c-0.831,2.416-1.505,5.209-2.052,8.221c-22.061-13.067-50.053-20.442-79.684-20.442
				c-29.631,0-57.622,7.375-79.684,20.442c-0.548-3.013-1.221-5.807-2.052-8.221c-4.555-13.245-8.946-24.31-13.19-35.009
				c-10.142-25.563-18.153-45.754-21.89-80.216c-4.12-37.991,0.573-68.201,13.95-89.787c7.515-12.126,18.041-21.797,31.379-28.908
				c3.721,21.613,7.374,40.751,7.424,41.014l3.742,19.569l60.32-27.415l60.32,27.415l3.742-19.569
				c0.05-0.264,3.703-19.402,7.424-41.014c13.339,7.11,23.864,16.78,31.379,28.907C372.243,178.449,376.937,208.658,372.816,246.65z
				 M436.259,71.337c-5.435,31.73-21.823,55.992-48.772,72.314c-7.903-13.773-17.826-24.454-28.623-32.727
				c4.432-28.823,15.218-50.169,32.17-63.474c16.035-12.586,34.634-15.548,46.168-16.022
				C438.29,40.931,438.98,55.447,436.259,71.337z"/>
		</g>
	</g>
</g>
<g>
</g>
<g>
</g>
<g>
</g>
<g>
</g>
<g>
</g>
<g>
</g>
<g>
</g>
<g>
</g>
<g>
</g>
<g>
</g>
<g>
</g>
<g>
</g>
<g>
</g>
<g>
</g>
<g>
</g>
</svg>
