<?xml version="1.0" encoding="iso-8859-1"?>
<!-- Generator: Adobe Illustrator 19.0.0, SVG Export Plug-In . SVG Version: 6.00 Build 0)  -->
<svg version="1.1" id="Layer_1" xmlns="http://www.w3.org/2000/svg" xmlns:xlink="http://www.w3.org/1999/xlink" x="0px" y="0px"
	 viewBox="0 0 512 512" style="enable-background:new 0 0 512 512;" xml:space="preserve">
<g>
	<g>
		<g>
			<path d="M432.568,318.383c-1.659-18.118-6.05-35.456-12.764-51.596l62.527-36.099l-16.293-28.22l-61.483,35.496
				c-12.589-19.272-28.821-35.952-47.715-49.061c1.464-6.959,2.204-14.068,2.204-21.25c0-37.175-19.79-69.813-49.387-87.938
				c4.677-29.406,29.273-57.919,29.548-58.234L314.7,0.003c-1.309,1.491-27.188,31.344-35.697,67.199
				c-7.399-1.694-15.098-2.592-23.004-2.592c-7.905,0-15.604,0.897-23.004,2.591C224.487,31.345,198.608,1.491,197.299,0
				l-24.486,21.5c7.477,8.516,25.527,33.752,29.501,58.232c-29.581,18.129-49.358,50.757-49.358,87.92
				c0,7.182,0.741,14.29,2.204,21.25c-18.894,13.109-35.127,29.79-47.715,49.062l-61.483-35.496l-16.293,28.22l62.527,36.099
				c-6.714,16.14-11.105,33.478-12.764,51.596H6.172v32.586h73.26c1.659,18.118,6.05,35.455,12.764,51.595L29.67,438.666
				l16.293,28.22l61.482-35.497C139.123,479.883,193.877,512,256,512s116.876-32.117,148.555-80.612l61.482,35.497l16.293-28.22
				l-62.527-36.1c6.714-16.14,11.105-33.477,12.764-51.595h73.26v-0.001v-32.586H432.568z M239.707,478.492
				c-72.166-8.123-128.444-69.514-128.444-143.815c0-74.3,56.279-135.693,128.444-143.815V478.492z M185.684,171.906
				c-0.084-1.413-0.141-2.83-0.141-4.253c0-38.85,31.608-70.457,70.457-70.457s70.457,31.608,70.457,70.457
				c0,1.423-0.058,2.839-0.141,4.253c-21.571-9.354-45.346-14.552-70.316-14.552C231.03,157.354,207.255,162.552,185.684,171.906z
				 M272.293,478.492v-287.63c72.166,8.123,128.444,69.515,128.444,143.815S344.459,470.369,272.293,478.492z"/>
			<circle cx="199.091" cy="273.703" r="17.677"/>
			<circle cx="158.206" cy="334.672" r="17.677"/>
			<circle cx="199.091" cy="395.652" r="17.677"/>
			<circle cx="312.904" cy="273.703" r="17.677"/>
			<circle cx="353.789" cy="334.672" r="17.677"/>
			<circle cx="312.904" cy="395.652" r="17.677"/>
		</g>
	</g>
</g>
<g>
</g>
<g>
</g>
<g>
</g>
<g>
</g>
<g>
</g>
<g>
</g>
<g>
</g>
<g>
</g>
<g>
</g>
<g>
</g>
<g>
</g>
<g>
</g>
<g>
</g>
<g>
</g>
<g>
</g>
</svg>
