<?xml version="1.0" encoding="iso-8859-1"?>
<!-- Generator: Adobe Illustrator 19.0.0, SVG Export Plug-In . SVG Version: 6.00 Build 0)  -->
<svg version="1.1" id="Layer_1" xmlns="http://www.w3.org/2000/svg" xmlns:xlink="http://www.w3.org/1999/xlink" x="0px" y="0px"
	 viewBox="0 0 512 512" style="enable-background:new 0 0 512 512;" xml:space="preserve">
<g>
	<g>
		<g>
			<path d="M417.621,61.96C376.985,22.005,319.587,0,255.999,0S135.014,22.005,94.378,61.96
				c-42.403,41.694-64.816,99.65-64.816,167.603c0,33.131,11.909,68.571,35.397,105.337c18.183,28.463,43.399,57.917,74.944,87.548
				c53.209,49.978,105.619,82.991,107.824,84.371L256,512l8.273-5.181c2.205-1.381,54.615-34.393,107.824-84.371
				c31.545-29.63,56.761-59.085,74.944-87.548c23.488-36.766,35.397-72.206,35.397-105.337
				C482.437,161.609,460.023,103.653,417.621,61.96z M351.118,399.382c-38.963,36.654-78.424,64.391-95.121,75.594
				c-16.628-11.149-55.831-38.694-94.751-75.251C115.395,356.658,60.737,292.177,60.737,229.563
				c0-59.404,19.191-109.673,55.498-145.373c17.266-16.977,37.949-30.158,61.472-39.176c23.951-9.183,50.293-13.839,78.291-13.839
				c27.998,0,54.34,4.656,78.291,13.838c23.525,9.019,44.206,22.199,61.472,39.176c36.307,35.7,55.498,85.969,55.498,145.373
				C451.262,292.053,396.802,356.402,351.118,399.382z"/>
			<path d="M224.354,221.098c-6.879,0-12.478,5.656-12.478,12.641c0,6.983,5.599,12.644,12.478,12.644
				c6.889,0,12.487-5.661,12.487-12.644C236.841,226.754,231.243,221.098,224.354,221.098z"/>
			<path d="M287.55,220.999c-6.947,0-12.581,5.703-12.581,12.739c0,7.035,5.634,12.738,12.581,12.738
				c6.938,0,12.573-5.703,12.573-12.738C300.123,226.702,294.489,220.999,287.55,220.999z"/>
			<path d="M416.984,179.863c0-32.252-25.858-58.491-57.642-58.491c-17.963,0-34.689,8.627-45.447,22.558
				c-13.048-5.872-33.767-12.944-57.895-12.944s-44.848,7.072-57.896,12.944c-10.76-13.931-27.484-22.558-45.447-22.558
				c-31.784,0-57.642,26.239-57.642,58.491c0,22.683,12.714,42.781,32.084,52.451v39.743c-0.294,6.012-1.144,47.431,28.703,79.482
				c22.643,24.315,56.353,36.644,100.197,36.644c43.844,0,77.555-12.329,100.197-36.644c29.847-32.051,28.997-73.471,28.703-79.482
				v-39.743C404.269,222.644,416.984,202.547,416.984,179.863z M365.558,206.415l-11.834,2.937v63.136l-0.005,0.479l0.039,0.554
				c0.021,0.329,1.762,33.235-20.609,57.021c-13.937,14.819-34.619,23.447-61.563,25.789v-20.002
				c10.931-2.553,20.617-7.75,27.368-14.937l-22.722-21.345c-2.984,3.177-10.074,6.887-20.234,6.887
				c-10.16,0-17.249-3.71-20.234-6.887l-22.721,21.345c6.75,7.187,16.437,12.385,27.368,14.937v20.002
				c-26.944-2.342-47.625-10.972-61.563-25.789c-22.371-23.786-20.63-56.691-20.614-56.946l0.039-64.245l-11.834-2.937
				c-11.923-2.959-20.25-13.877-20.25-26.551c0-15.062,11.873-27.316,26.467-27.316c10.896,0,20.832,7.059,24.726,17.566
				l6.783,18.302l16.348-10.663c0.238-0.156,24.765-15.591,55.486-15.591c30.835,0,55.289,15.465,55.486,15.591l16.348,10.663
				l6.783-18.302c3.894-10.507,13.83-17.566,24.726-17.566c14.594,0,26.467,12.254,26.467,27.316
				C385.808,192.538,377.482,203.457,365.558,206.415z"/>
		</g>
	</g>
</g>
<g>
</g>
<g>
</g>
<g>
</g>
<g>
</g>
<g>
</g>
<g>
</g>
<g>
</g>
<g>
</g>
<g>
</g>
<g>
</g>
<g>
</g>
<g>
</g>
<g>
</g>
<g>
</g>
<g>
</g>
</svg>
