<?xml version="1.0" encoding="iso-8859-1"?>
<!-- Generator: Adobe Illustrator 19.0.0, SVG Export Plug-In . SVG Version: 6.00 Build 0)  -->
<svg version="1.1" id="Layer_1" xmlns="http://www.w3.org/2000/svg" xmlns:xlink="http://www.w3.org/1999/xlink" x="0px" y="0px"
	 viewBox="0 0 512 512" style="enable-background:new 0 0 512 512;" xml:space="preserve">
<g>
	<g>
		<g>
			<path d="M414.518,342.814l85.347-19.818l-7.09-30.533l-71.872,16.689c1.652-12.583,2.508-25.257,2.508-37.861
				c0-18.777-1.87-36.632-5.523-53.385c29.704-12.17,55.814-29.164,70.14-46.001c17.4-20.449,25.796-46.451,23.64-73.214
				c-2.156-26.763-14.604-51.085-35.055-68.485c-20.45-17.4-46.447-25.792-73.215-23.64c-26.763,2.157-51.085,14.605-68.484,35.055
				c-9.667,11.36-18.542,27.964-25.645,47.717c-16.758-5.646-34.68-8.583-53.269-8.583s-36.512,2.938-53.269,8.583
				c-7.102-19.753-15.978-36.357-25.645-47.717c-17.399-20.449-41.721-32.899-68.484-35.055
				C81.836,4.41,55.837,12.805,35.387,30.205C14.937,47.605,2.488,71.927,0.332,98.69c-2.156,26.764,6.238,52.765,23.64,73.214
				c14.325,16.836,40.435,33.831,70.14,46.001c-3.653,16.753-5.523,34.608-5.523,53.385c0,12.602,0.855,25.277,2.508,37.861
				l-71.872-16.689l-7.09,30.534l85.349,19.819c4.488,18.03,10.598,35.547,18.199,52.024L12.135,418.883l7.09,30.534l111.832-25.968
				c1.51,2.432,3.049,4.839,4.631,7.199c15.293,22.811,33.006,40.918,52.646,53.818c21.519,14.133,44.286,21.3,67.668,21.3
				c23.382,0,46.149-7.166,67.668-21.3c19.641-12.9,37.352-31.007,52.646-53.818c1.582-2.36,3.12-4.766,4.631-7.199l111.832,25.968
				l7.09-30.534l-103.548-24.045C403.92,378.361,410.031,360.844,414.518,342.814z M358.787,61.935
				c11.974-14.073,28.712-22.64,47.129-24.123c18.401-1.485,36.309,4.293,50.383,16.267c14.071,11.974,22.64,28.712,24.123,47.128
				c1.485,18.418-4.293,36.311-16.267,50.383c-10.499,12.34-31.643,25.985-55.264,36.082c-8.093-21.033-19.49-39.749-34.039-55.63
				c-10.886-11.883-23.317-21.836-36.918-29.727C343.868,85.274,351.357,70.668,358.787,61.935z M103.109,187.674
				c-23.621-10.098-44.765-23.743-55.264-36.083c-11.974-14.073-17.752-31.965-16.267-50.383
				c1.484-18.418,10.051-35.155,24.123-47.128c14.073-11.974,31.969-17.748,50.383-16.267c18.418,1.484,35.155,10.051,47.129,24.123
				c7.43,8.731,14.921,23.339,20.853,40.381c-13.6,7.891-26.031,17.844-36.918,29.727
				C122.598,147.925,111.201,166.641,103.109,187.674z M388.045,316.781l-60.558,14.062l7.09,30.534l45.175-10.491
				c-3.996,12.729-8.924,25.037-14.693,36.692l-30.481-7.078l-7.09,30.534l20.937,4.862C322.252,453.661,289.53,474.42,256,474.42
				s-66.251-20.759-92.423-58.523l20.937-4.862l-7.09-30.534l-30.481,7.078c-5.77-11.655-10.698-23.963-14.693-36.692l45.175,10.491
				l7.09-30.535l-60.558-14.062c-2.64-15.03-4.022-30.31-4.022-45.491c0-48.447,13.945-89.276,40.327-118.072
				c24.291-26.515,58.292-41.116,95.739-41.116c37.447,0,71.449,14.602,95.739,41.116c26.382,28.796,40.327,69.626,40.327,118.072
				C392.066,286.471,390.684,301.753,388.045,316.781z"/>
			<path d="M224.42,220.081c0-11.512-9.227-20.836-20.581-20.836c-11.34,0-20.569,9.323-20.569,20.836
				c0,11.51,9.229,20.842,20.569,20.842C215.193,240.923,224.42,231.591,224.42,220.081z"/>
			<path d="M308.007,199.084c-11.451,0-20.738,9.401-20.738,20.998s9.287,20.998,20.738,20.998c11.436,0,20.724-9.401,20.724-20.998
				S319.443,199.084,308.007,199.084z"/>
			<path d="M298.118,333.498c-11.423-8.771-26.381-13.601-42.118-13.601s-30.695,4.83-42.118,13.601
				c-12.467,9.574-19.619,23.221-19.619,37.442s7.151,27.868,19.619,37.442c11.424,8.771,26.381,13.601,42.118,13.601
				s30.695-4.83,42.118-13.601c12.467-9.574,19.619-23.221,19.619-37.442S310.587,343.072,298.118,333.498z M256,390.637
				c-16.19,0-30.391-9.205-30.391-19.697S239.81,351.242,256,351.242s30.391,9.205,30.391,19.697S272.19,390.637,256,390.637z"/>
		</g>
	</g>
</g>
<g>
</g>
<g>
</g>
<g>
</g>
<g>
</g>
<g>
</g>
<g>
</g>
<g>
</g>
<g>
</g>
<g>
</g>
<g>
</g>
<g>
</g>
<g>
</g>
<g>
</g>
<g>
</g>
<g>
</g>
</svg>
