<?xml version="1.0" encoding="iso-8859-1"?>
<!-- Generator: Adobe Illustrator 19.0.0, SVG Export Plug-In . SVG Version: 6.00 Build 0)  -->
<svg version="1.1" id="Layer_1" xmlns="http://www.w3.org/2000/svg" xmlns:xlink="http://www.w3.org/1999/xlink" x="0px" y="0px"
	 viewBox="0 0 512.001 512.001" style="enable-background:new 0 0 512.001 512.001;" xml:space="preserve">
<g>
	<g>
		<path d="M356.13,170.745c-46.102,0-83.609,42.56-83.609,94.874c0,6.949,0.668,13.724,1.924,20.253
			c-5.674-2.403-11.907-3.732-18.446-3.732s-12.772,1.329-18.446,3.732c1.256-6.528,1.924-13.303,1.924-20.253
			c0-52.314-37.507-94.874-83.609-94.874s-83.61,42.56-83.61,94.874s37.507,94.874,83.61,94.874c20.418,0,39.148-8.354,53.682-22.2
			c1.678,7.97,5.965,20.678,16.446,43.054c8.087,17.264,16.046,32.083,16.38,32.706l13.621,25.319l13.621-25.319
			c0.335-0.623,8.294-15.442,16.38-32.706c10.482-22.377,14.77-35.084,16.447-43.054c14.535,13.847,33.264,22.2,53.682,22.2
			c46.102,0,83.609-42.56,83.609-94.874S402.233,170.745,356.13,170.745z M155.869,329.558c-29.044,0-52.674-28.682-52.674-63.939
			s23.63-63.939,52.674-63.939s52.674,28.682,52.674,63.939S184.913,329.558,155.869,329.558z M256,372.48
			c-9.194-19.299-16.448-37.14-16.522-42.884c0.001-9.109,7.412-16.521,16.522-16.521c9.111,0,16.522,7.412,16.522,16.518
			C272.452,335.331,265.196,353.176,256,372.48z M356.13,329.558c-29.044,0-52.674-28.682-52.674-63.939s23.63-63.939,52.674-63.939
			c29.044,0,52.674,28.682,52.674,63.939S385.175,329.558,356.13,329.558z"/>
	</g>
</g>
<g>
	<g>
		<path d="M497.423,100.118c16.897-49.191-24.99-87.787-26.782-89.406L458.79,0l-76.397,90.224
			C345.198,65.628,301.617,52.415,256,52.415s-89.198,13.213-126.392,37.808L53.21,0L41.359,10.712
			c-1.791,1.619-43.679,40.216-26.781,89.407c7.892,22.972,31.884,47.692,46.103,60.897C38.23,197.045,26.208,238.7,26.208,282.208
			c0,61.379,23.903,119.085,67.305,162.488c43.402,43.403,101.108,67.305,162.488,67.305s119.085-23.903,162.488-67.305
			c43.403-43.402,67.305-101.108,67.305-162.488c0-43.508-12.023-85.162-34.474-121.192
			C465.538,147.811,489.532,123.089,497.423,100.118z M43.835,90.068c-5.904-17.185,1.035-33.27,7.992-43.83l53.154,62.773
			c-3.921,3.429-7.75,6.991-11.468,10.709c-5.124,5.124-9.966,10.454-14.54,15.959C66.022,123.226,48.758,104.399,43.835,90.068z
			 M454.857,282.208c0,109.65-89.207,198.857-198.857,198.857S57.143,391.858,57.143,282.208S146.35,83.351,256,83.351
			S454.857,172.558,454.857,282.208z M433.043,135.698c-4.578-5.513-9.426-10.849-14.555-15.978
			c-3.717-3.717-7.547-7.28-11.468-10.709l53.151-62.77c6.964,10.57,13.895,26.648,7.994,43.827
			C463.198,104.528,446.1,123.191,433.043,135.698z"/>
	</g>
</g>
<g>
	<g>
		<path d="M155.863,245.053c-11.191,0-20.299,9.201-20.299,20.562c0,11.359,9.107,20.569,20.299,20.569
			c11.206,0,20.312-9.21,20.312-20.569C176.174,254.254,167.069,245.053,155.863,245.053z"/>
	</g>
</g>
<g>
	<g>
		<path d="M356.124,245.054c-11.19-0.001-20.299,9.2-20.299,20.562c0,11.359,9.107,20.569,20.299,20.569
			c11.206,0,20.312-9.21,20.312-20.569C376.436,254.254,367.33,245.054,356.124,245.054z"/>
	</g>
</g>
<g>
</g>
<g>
</g>
<g>
</g>
<g>
</g>
<g>
</g>
<g>
</g>
<g>
</g>
<g>
</g>
<g>
</g>
<g>
</g>
<g>
</g>
<g>
</g>
<g>
</g>
<g>
</g>
<g>
</g>
</svg>
