<?xml version="1.0" encoding="iso-8859-1"?>
<!-- Generator: Adobe Illustrator 19.0.0, SVG Export Plug-In . SVG Version: 6.00 Build 0)  -->
<svg version="1.1" id="Layer_1" xmlns="http://www.w3.org/2000/svg" xmlns:xlink="http://www.w3.org/1999/xlink" x="0px" y="0px"
	 viewBox="0 0 512.001 512.001" style="enable-background:new 0 0 512.001 512.001;" xml:space="preserve">
<g>
	<g>
		<g>
			<path d="M495.401,78.762c-13.529-18.61-33.411-30.697-55.984-34.037c-30.236-4.467-60.557,8.175-79.307,32.05
				C331.964,65.604,297.396,60.088,256,60.088c-41.395,0-75.963,5.515-104.11,16.687c-18.748-23.876-49.069-36.52-79.308-32.049
				C50.009,48.065,30.128,60.152,16.6,78.762C3.141,97.275-2.412,120.043,0.964,142.87c4.769,32.246,26.468,58.408,55.853,69.031
				c-3.108,22.967-3.845,46.89-3.845,70.496c0,58.27,19.662,106.219,56.863,138.666c35.33,30.814,85.873,47.103,146.166,47.103
				s110.835-16.288,146.166-47.103c37.2-32.446,56.863-80.395,56.863-138.665c0-23.607-0.738-47.529-3.845-70.496
				c29.386-10.623,51.085-36.786,55.853-69.031C514.413,120.043,508.859,97.275,495.401,78.762z M31.973,138.284
				c-2.168-14.662,1.376-29.254,9.982-41.092c8.534-11.741,21.042-19.361,35.214-21.457c17.027-2.521,34.13,3.642,46.057,15.811
				c-15.106,9.922-27.613,22.208-37.6,36.926c-10.619,15.65-17.843,33.273-22.741,52.045
				C46.58,172.825,34.77,157.195,31.973,138.284z M256,356.578c-3.962,0-12.476-4.3-20.45-12.27
				c-8.109-8.105-12.352-16.612-12.352-20.827c0-3.764,0.645-4.034,3.043-5.044c6.834-2.875,20.258-3.208,29.76-3.208
				c9.502,0,22.925,0.332,29.76,3.208c2.398,1.009,3.043,1.281,3.043,5.044c0,4.214-4.243,12.722-12.352,20.827
				C268.477,352.278,259.962,356.578,256,356.578z M381.561,397.441c-26.549,23.156-64.318,36.493-109.888,38.956v-51.602
				c12.306-4.749,22.329-13.712,26.936-18.315c6.476-6.472,21.54-23.619,21.54-42.997c0-15.853-7.896-27.904-22.233-33.936
				c-9.556-4.022-21.701-5.661-41.916-5.661c-20.215,0-32.36,1.639-41.916,5.661c-14.337,6.032-22.233,18.085-22.233,33.936
				c0,19.378,15.064,36.525,21.54,42.997c4.607,4.605,14.63,13.567,26.936,18.315v51.602c-45.57-2.463-83.339-15.799-109.888-38.956
				c-30.604-26.693-46.122-65.399-46.122-115.043c0-49.949,3.301-101.034,27.247-136.325c11.827-17.43,28.021-30.266,49.508-39.24
				C185.539,96.615,217.477,91.434,256,91.434c38.523,0,70.461,5.18,94.927,15.398c21.487,8.974,37.681,21.81,49.508,39.24
				c23.945,35.29,27.247,86.376,27.247,136.325C427.682,332.041,412.165,370.747,381.561,397.441z M480.027,138.284
				c-2.797,18.911-14.607,34.541-30.913,42.233c-4.897-18.772-12.122-36.395-22.741-52.045c-9.987-14.718-22.494-27.005-37.6-36.926
				c11.927-12.169,29.031-18.332,46.057-15.811c14.173,2.096,26.68,9.716,35.214,21.457
				C478.651,109.03,482.196,123.622,480.027,138.284z"/>
			<path d="M179.472,187.664c-11.34,0-20.568,9.322-20.568,20.835c0,11.51,9.228,20.841,20.568,20.841
				c11.355,0,20.582-9.332,20.582-20.841C200.054,196.987,190.826,187.664,179.472,187.664z"/>
			<path d="M185.042,137.904c-18.061,2.539-35.859,11.789-50.116,26.046c-14.257,14.257-23.507,32.055-26.047,50.116
				c-2.73,19.417,2.771,37.622,15.093,49.944c10.249,10.249,24.566,15.78,40.266,15.78c3.176,0,6.409-0.227,9.677-0.687
				c18.061-2.539,35.859-11.789,50.115-26.046c14.257-14.257,23.507-32.055,26.046-50.116c2.73-19.417-2.771-37.621-15.093-49.944
				C222.662,140.674,204.459,135.169,185.042,137.904z M201.866,230.891c-18.072,18.072-43.593,23.092-55.729,10.953
				c-12.135-12.135-7.119-37.657,10.953-55.73c11.385-11.385,25.721-17.587,37.811-17.587c7.101,0,13.429,2.143,17.918,6.634
				C224.955,187.297,219.938,212.818,201.866,230.891z"/>
			<path d="M332.528,187.664c-11.355,0-20.582,9.322-20.582,20.835c0,11.51,9.227,20.841,20.582,20.841
				c11.34,0,20.568-9.332,20.568-20.841C353.097,196.987,343.868,187.664,332.528,187.664z"/>
			<path d="M326.959,137.904c-19.417-2.735-37.62,2.77-49.943,15.092s-17.824,30.527-15.093,49.944
				c2.54,18.061,11.79,35.859,26.047,50.116c14.257,14.257,32.054,23.507,50.115,26.047c3.268,0.46,6.499,0.686,9.677,0.686
				c15.699,0,30.018-5.532,40.266-15.78c12.322-12.322,17.824-30.527,15.093-49.944c-2.54-18.061-11.79-35.859-26.047-50.116
				C362.818,149.693,345.02,140.443,326.959,137.904z M365.864,241.845c-12.134,12.135-37.655,7.119-55.729-10.953
				c-18.073-18.073-23.089-43.595-10.954-55.73c12.135-12.133,37.657-7.119,55.728,10.953
				C372.982,204.188,377.999,229.709,365.864,241.845z"/>
		</g>
	</g>
</g>
<g>
</g>
<g>
</g>
<g>
</g>
<g>
</g>
<g>
</g>
<g>
</g>
<g>
</g>
<g>
</g>
<g>
</g>
<g>
</g>
<g>
</g>
<g>
</g>
<g>
</g>
<g>
</g>
<g>
</g>
</svg>
