<?xml version="1.0" encoding="iso-8859-1"?>
<!-- Generator: Adobe Illustrator 19.0.0, SVG Export Plug-In . SVG Version: 6.00 Build 0)  -->
<svg version="1.1" id="Layer_1" xmlns="http://www.w3.org/2000/svg" xmlns:xlink="http://www.w3.org/1999/xlink" x="0px" y="0px"
	 viewBox="0 0 512 512" style="enable-background:new 0 0 512 512;" xml:space="preserve">
<g>
	<g>
		<g>
			<path d="M344.823,193.365c-11.355,0-20.582,9.324-20.582,20.835c0,11.511,9.227,20.843,20.582,20.843
				c11.34,0,20.569-9.331,20.569-20.843C365.392,202.688,356.163,193.365,344.823,193.365z"/>
			<path d="M187.76,214.201c0-11.513-9.229-20.835-20.569-20.835c-11.355,0-20.582,9.324-20.582,20.835
				c0,11.511,9.227,20.843,20.582,20.843C178.53,235.042,187.76,225.712,187.76,214.201z"/>
			<path d="M437.019,74.981C388.668,26.628,324.38,0,256,0S123.332,26.628,74.981,74.981C26.629,123.333,0,187.62,0,256v256h512V256
				C512,187.62,485.372,123.332,437.019,74.981z M407.51,480.653H104.49V221.117c0-41.621,33.862-75.483,75.483-75.483
				c25.374,0,48.912,12.658,62.962,33.859L256,199.207l13.064-19.714c14.051-21.201,37.588-33.859,62.962-33.859
				c41.621,0,75.483,33.862,75.483,75.483V480.653z M480.653,480.653h-41.796V221.117c0-58.906-47.924-106.83-106.83-106.83
				c-28.917,0-56.142,11.606-76.027,31.782c-19.884-20.176-47.11-31.782-76.027-31.782c-58.906,0-106.83,47.924-106.83,106.83
				v259.536H31.347V256c0-60.007,23.368-116.423,65.799-158.854S195.993,31.347,256,31.347s116.423,23.368,158.854,65.799
				c42.431,42.431,65.799,98.846,65.799,158.854V480.653z"/>
			<path d="M181.287,313.056L256,431.699l74.713-118.642L256,245.866L181.287,313.056z M256,372.873l-34.113-54.171L256,288.024
				l34.113,30.678L256,372.873z"/>
		</g>
	</g>
</g>
<g>
</g>
<g>
</g>
<g>
</g>
<g>
</g>
<g>
</g>
<g>
</g>
<g>
</g>
<g>
</g>
<g>
</g>
<g>
</g>
<g>
</g>
<g>
</g>
<g>
</g>
<g>
</g>
<g>
</g>
</svg>
