<?xml version="1.0" encoding="iso-8859-1"?>
<!-- Generator: Adobe Illustrator 19.0.0, SVG Export Plug-In . SVG Version: 6.00 Build 0)  -->
<svg version="1.1" id="Layer_1" xmlns="http://www.w3.org/2000/svg" xmlns:xlink="http://www.w3.org/1999/xlink" x="0px" y="0px"
	 viewBox="0 0 512 512" style="enable-background:new 0 0 512 512;" xml:space="preserve">
<g>
	<g>
		<g>
			<path d="M467.156,223.057c56.897-59.328,43.703-167.417,43.114-171.99l-1.508-11.693l-11.652-1.792
				c-3.878-0.597-91.859-13.492-155.073,29.31c-27.517-13.621-56.463-20.53-86.037-20.53c-29.575,0-58.52,6.909-86.037,20.53
				C106.75,24.092,18.766,36.986,14.89,37.584L3.237,39.374L1.73,51.068c-0.589,4.573-13.783,112.662,43.114,171.99l0.186-0.179
				c-5.436,20.033-8.292,40.555-8.292,60.917c0,57.977,22.592,107.249,65.332,142.491c39.423,32.506,94.09,50.408,153.93,50.408
				s114.507-17.902,153.929-50.408c42.741-35.24,65.332-84.514,65.332-142.491c0-20.362-2.856-40.884-8.292-60.918L467.156,223.057z
				 M31.836,67.361c21.843-1.511,68.952-1.842,107.646,17.895c-14.042,10.083-27.147,21.931-39.164,35.469
				c-17.987,20.267-32.548,43.293-43.182,67.727C30.834,149.393,30.508,92.219,31.836,67.361z M389.991,402.104
				c-33.823,27.889-81.409,43.247-133.991,43.247s-100.168-15.358-133.991-43.247c-35.28-29.09-53.929-70.001-53.929-118.309
				c0-50.542,20.295-102.395,55.68-142.265c36.53-41.158,83.493-63.826,132.24-63.826s95.71,22.667,132.24,63.826
				c35.385,39.87,55.68,91.724,55.68,142.265C443.919,332.103,425.271,373.015,389.991,402.104z M411.68,120.726
				c-12.016-13.539-25.12-25.388-39.164-35.47c38.716-19.746,85.854-19.403,107.671-17.893c0.555,10.14,0.832,25.685-0.866,43.301
				c-3.615,37.522-13.952,62.043-24.469,77.768C444.22,164.005,429.662,140.986,411.68,120.726z"/>
			<path d="M203.847,210.608c11.353,0,20.579-9.33,20.579-20.839c0-11.511-9.226-20.832-20.579-20.832
				c-11.338,0-20.565,9.321-20.565,20.832C183.282,201.278,192.509,210.608,203.847,210.608z"/>
			<path d="M308.001,210.764c11.435,0,20.721-9.399,20.721-20.995s-9.287-20.995-20.721-20.995
				c-11.448,0-20.735,9.399-20.735,20.995S296.553,210.764,308.001,210.764z"/>
			<path d="M230.913,323.525c-6.807,0-12.347,5.596-12.347,12.506c0,6.909,5.539,12.511,12.347,12.511
				c6.816,0,12.354-5.601,12.354-12.511C243.267,329.122,237.729,323.525,230.913,323.525z"/>
			<path d="M280.997,323.428c-6.873,0-12.448,5.643-12.448,12.604c0,6.961,5.576,12.604,12.448,12.604
				c6.865,0,12.44-5.643,12.44-12.604C293.436,329.071,287.862,323.428,280.997,323.428z"/>
			<path d="M323.271,279.278c-18.142-13.93-42.031-21.602-67.27-21.602c-25.238,0-49.127,7.671-67.269,21.602
				c-19.37,14.873-30.037,35.029-30.037,56.754c0,21.725,10.668,41.881,30.037,56.754c18.141,13.929,42.03,21.601,67.269,21.601
				c25.238,0,49.127-7.671,67.27-21.601c19.369-14.873,30.037-35.029,30.037-56.754C353.307,314.307,342.64,294.152,323.271,279.278
				z M304.183,367.927c-12.695,9.749-29.807,15.118-48.181,15.118s-35.484-5.369-48.181-15.118
				c-11.468-8.806-17.783-20.133-17.783-31.894c0-11.762,6.315-23.09,17.783-31.895c12.696-9.748,29.807-15.118,48.181-15.118
				s35.485,5.37,48.181,15.118c11.469,8.806,17.783,20.133,17.783,31.895C321.966,347.795,315.65,359.121,304.183,367.927z"/>
		</g>
	</g>
</g>
<g>
</g>
<g>
</g>
<g>
</g>
<g>
</g>
<g>
</g>
<g>
</g>
<g>
</g>
<g>
</g>
<g>
</g>
<g>
</g>
<g>
</g>
<g>
</g>
<g>
</g>
<g>
</g>
<g>
</g>
</svg>
