<?xml version="1.0" encoding="iso-8859-1"?>
<!-- Generator: Adobe Illustrator 19.0.0, SVG Export Plug-In . SVG Version: 6.00 Build 0)  -->
<svg version="1.1" id="Layer_1" xmlns="http://www.w3.org/2000/svg" xmlns:xlink="http://www.w3.org/1999/xlink" x="0px" y="0px"
	 viewBox="0 0 512 512" style="enable-background:new 0 0 512 512;" xml:space="preserve">
<g>
	<g>
		<g>
			<path d="M203.862,193.113c-11.336,0-20.56,9.319-20.56,20.827c0,11.505,9.225,20.833,20.56,20.833
				c11.35,0,20.573-9.328,20.573-20.833C224.435,202.432,215.212,193.113,203.862,193.113z"/>
			<path d="M307.988,192.951c-11.446,0-20.73,9.397-20.73,20.989s9.284,20.989,20.73,20.989c11.431,0,20.715-9.397,20.715-20.989
				C328.704,202.347,319.42,192.951,307.988,192.951z"/>
			<path d="M511.897,128.63c1.105-23.042-6.665-45.143-21.881-62.233c-15.294-17.178-36.266-27.24-59.051-28.332
				c-28.707-1.391-55.984,12.297-72.685,35.222c-5.252-3.188-10.611-6.158-16.087-8.875C314.63,50.738,285.631,43.804,256,43.804
				c-29.631,0-58.63,6.934-86.192,20.608c-5.477,2.718-10.838,5.687-16.089,8.875c-16.705-22.925-43.991-36.609-72.683-35.223
				c-22.785,1.093-43.757,11.155-59.051,28.333C6.769,83.488-1.002,105.588,0.104,128.63c1.588,33.098,21.205,61.678,50.18,74.865
				c-5.294,15.177-9.097,30.752-11.286,46.432l-19.673-4.568l-7.091,30.535l24.561,5.703c0.057,30.95,6.567,59.408,19.147,84.57
				l-43.708,10.149l7.091,30.535l54.239-12.595c8.198,10.635,17.721,20.461,28.543,29.383
				c39.414,32.498,94.068,50.394,153.894,50.394s114.48-17.897,153.894-50.394c10.822-8.923,20.345-18.748,28.543-29.384
				l54.242,12.596l7.091-30.535l-43.712-10.15c12.58-25.16,19.088-53.618,19.147-84.567l24.565-5.704l-7.091-30.535l-19.677,4.569
				c-2.189-15.681-5.991-31.256-11.286-46.433C490.691,190.308,510.308,161.728,511.897,128.63z M31.415,127.128
				c-0.711-14.797,4.256-28.961,13.982-39.886c9.647-10.836,22.838-17.18,37.142-17.868c17.932-0.867,35.007,7.681,45.601,22.024
				c-9.794,8.012-19.075,16.939-27.785,26.751c-15.182,17.107-27.93,36.178-37.931,56.404
				C44.506,165.996,32.415,147.98,31.415,127.128z M235.565,336.885c-8.105-8.101-12.345-16.603-12.345-20.814
				c0-3.757,0.644-4.028,3.037-5.035c6.832-2.873,20.248-3.206,29.745-3.206c9.498,0,22.914,0.332,29.746,3.206
				c2.394,1.008,3.038,1.279,3.038,5.035c0,4.211-4.241,12.713-12.345,20.814c-7.97,7.965-16.479,12.263-20.438,12.263
				S243.535,344.85,235.565,336.885z M424.366,358.805l-60.373-14.019l-7.091,30.535l47.134,10.945
				c-4.355,4.626-9.044,9.031-14.084,13.187c-30.418,25.081-71.971,40.016-118.277,42.765v-64.853
				c12.3-4.748,22.318-13.706,26.924-18.309c6.474-6.47,21.533-23.614,21.533-42.986c0-15.849-7.894-27.898-22.227-33.929
				c-9.555-4.021-21.695-5.66-41.902-5.66s-32.348,1.639-41.902,5.66c-14.334,6.03-22.227,18.08-22.227,33.929
				c0,19.372,15.059,36.515,21.533,42.986c4.605,4.603,14.622,13.561,26.923,18.309v64.853
				c-46.308-2.748-87.862-17.685-118.281-42.765c-5.04-4.156-9.728-8.561-14.083-13.185l47.137-10.946l-7.091-30.535l-60.377,14.02
				c-11.693-20.574-18.24-44.108-19.326-69.891l79.703,18.508l7.091-30.535l-85.446-19.841
				c5.313-42.565,24.39-84.563,54.143-118.088c36.519-41.147,83.468-63.806,132.201-63.806s95.682,22.661,132.201,63.806
				c29.753,33.524,48.83,75.523,54.143,118.089l-85.442,19.84l7.09,30.534l79.699-18.507
				C442.605,314.698,436.059,338.231,424.366,358.805z M480.585,127.129c-1,20.852-13.091,38.867-31.009,47.428
				c-10.001-20.226-22.748-39.298-37.931-56.404c-8.709-9.814-17.991-18.739-27.785-26.751
				c10.592-14.345,27.664-22.893,45.602-22.025c14.302,0.686,27.493,7.031,37.141,17.868
				C476.33,98.167,481.296,112.332,480.585,127.129z"/>
		</g>
	</g>
</g>
<g>
</g>
<g>
</g>
<g>
</g>
<g>
</g>
<g>
</g>
<g>
</g>
<g>
</g>
<g>
</g>
<g>
</g>
<g>
</g>
<g>
</g>
<g>
</g>
<g>
</g>
<g>
</g>
<g>
</g>
</svg>
