<?xml version="1.0" encoding="iso-8859-1"?>
<!-- Generator: Adobe Illustrator 19.0.0, SVG Export Plug-In . SVG Version: 6.00 Build 0)  -->
<svg version="1.1" id="Layer_1" xmlns="http://www.w3.org/2000/svg" xmlns:xlink="http://www.w3.org/1999/xlink" x="0px" y="0px"
	 viewBox="0 0 512 512" style="enable-background:new 0 0 512 512;" xml:space="preserve">
<g>
	<g>
		<path d="M473.215,29.901l-32.141-3.548c-0.75,6.798-8.264,20.183-19.206,28.079c2.191-21.545,2.191-40.714,2.19-53.507V0h-32.337
			v0.928c0.002,18.784-0.01,52.936-7.898,85.732c-14.829-6.1-25.659-23.996-26.568-32.23l-32.141,3.547
			c1.381,12.519,9.09,27.788,20.116,39.849c8.354,9.137,18.004,15.743,28.256,19.534c-2.607,5.707-5.597,11.164-9.005,16.276
			c-36.434-16.62-79.152-18.592-108.483-18.592s-72.048,1.971-108.483,18.592c-3.388-5.086-6.366-10.51-8.964-16.184
			c28.653-10.483,46.318-41.234,48.332-59.475l-32.142-3.547c-0.909,8.235-11.737,26.131-26.567,32.23
			c-7.887-32.796-7.899-66.947-7.897-85.731V0H87.943v0.926c-0.001,12.792-0.001,31.961,2.189,53.506
			c-10.941-7.897-18.456-21.281-19.206-28.078l-32.142,3.547c1.382,12.519,9.089,27.786,20.112,39.845
			c10.769,11.781,23.691,19.362,37.291,22.102c4.704,20.355,12.092,40.833,23.691,58.648c-9.195,7.409-16.939,15.971-23.154,25.616
			c-12.551,19.479-18.914,43.481-18.914,71.339c0,40.62,9.372,65.569,21.239,97.154c3.966,10.554,8.065,21.466,12.313,34.23
			c10.992,33.031,24.277,67.084,46.866,92.391C182.718,498.662,214.7,512,256,512s73.281-13.338,97.771-40.773
			c22.588-25.307,35.873-59.361,46.866-92.391c4.247-12.762,8.347-23.675,12.312-34.227c11.868-31.587,21.24-56.536,21.24-97.157
			c0-27.858-6.363-51.861-18.914-71.339c-6.215-9.646-13.96-18.207-23.154-25.616c11.586-17.794,18.971-38.244,23.676-58.575
			C449.782,85.298,470.996,50,473.215,29.901z M401.852,247.451c0,34.747-8.042,56.155-19.174,85.784
			c-3.883,10.332-8.281,22.042-12.723,35.389C345.989,440.638,320.732,479.663,256,479.663s-89.99-39.025-113.955-111.038
			c-4.442-13.349-8.842-25.06-12.723-35.392c-11.131-29.628-19.174-51.035-19.174-85.782c0-40.115,15.701-67.29,48-83.078
			c23.391-11.434,55.399-16.993,97.852-16.993s74.461,5.559,97.852,16.992C386.15,180.161,401.852,207.337,401.852,247.451z"/>
	</g>
</g>
<g>
	<g>
		<path d="M299.45,355.859c-11.785-9.049-27.215-14.032-43.45-14.032c-16.234,0-31.664,4.983-43.449,14.032
			c-12.862,9.877-20.24,23.955-20.24,38.625c0,14.67,7.377,28.749,20.24,38.625c11.785,9.049,27.215,14.032,43.449,14.032
			c16.235,0,31.665-4.983,43.45-14.032c12.862-9.877,20.239-23.955,20.239-38.625C319.688,379.815,312.311,365.736,299.45,355.859z
			 M256,414.805c-16.702,0-31.352-9.495-31.352-20.32c0-10.825,14.651-20.32,31.352-20.32s31.352,9.496,31.352,20.32
			S272.701,414.805,256,414.805z"/>
	</g>
</g>
<g>
	<g>
		<path d="M202.189,230.734c-11.698,0-21.219,9.618-21.219,21.493c0,11.874,9.52,21.501,21.219,21.501
			c11.714,0,21.232-9.627,21.232-21.501C223.422,240.351,213.904,230.734,202.189,230.734z"/>
	</g>
</g>
<g>
	<g>
		<path d="M309.65,230.567c-11.812,0-21.393,9.698-21.393,21.661c0,11.964,9.581,21.661,21.393,21.661
			c11.798,0,21.379-9.698,21.379-21.661C331.029,240.264,321.448,230.567,309.65,230.567z"/>
	</g>
</g>
<g>
</g>
<g>
</g>
<g>
</g>
<g>
</g>
<g>
</g>
<g>
</g>
<g>
</g>
<g>
</g>
<g>
</g>
<g>
</g>
<g>
</g>
<g>
</g>
<g>
</g>
<g>
</g>
<g>
</g>
</svg>
