<?xml version="1.0" encoding="iso-8859-1"?>
<!-- Generator: Adobe Illustrator 19.0.0, SVG Export Plug-In . SVG Version: 6.00 Build 0)  -->
<svg version="1.1" id="Layer_1" xmlns="http://www.w3.org/2000/svg" xmlns:xlink="http://www.w3.org/1999/xlink" x="0px" y="0px"
	 viewBox="0 0 512 512" style="enable-background:new 0 0 512 512;" xml:space="preserve">
<g>
	<g>
		<g>
			<path d="M205.01,171.081c0-11.512-9.227-20.834-20.581-20.834c-11.34,0-20.568,9.323-20.568,20.834
				c0,11.51,9.228,20.841,20.568,20.841C195.783,191.922,205.01,182.591,205.01,171.081z"/>
			<path d="M327.417,150.084c-11.449,0-20.737,9.4-20.737,20.997s9.288,20.997,20.737,20.997c11.436,0,20.723-9.4,20.723-20.997
				S338.853,150.084,327.417,150.084z"/>
			<path d="M270.225,201.141L256,170.387l-14.224,30.754c-0.122,0.265-12.409,26.869-24.526,56.41
				c-22.788,55.559-25.423,73.302-25.423,81.816c0,35.385,28.788,64.174,64.174,64.174c35.385,0,64.174-28.788,64.174-64.174
				c0-8.512-2.635-26.257-25.423-81.816C282.635,228.01,270.348,201.406,270.225,201.141z M256,372.195
				c-18.102,0-32.829-14.727-32.829-32.829c0-11.582,15.057-52.024,32.83-93.218c17.772,41.189,32.828,81.629,32.828,93.218
				C288.829,357.468,274.102,372.195,256,372.195z"/>
			<path d="M504.723,62.393c-7.176-12.356-18.708-21.181-32.472-24.848c-13.797-3.679-28.222-1.735-40.617,5.463
				c-15.31,8.891-30.218,23.933-42.165,38.075c-6.929-5.531-14.683-10.409-23.239-14.591
				C329.662,48.618,285.807,46.55,256.001,46.55s-73.661,2.068-110.228,19.942c-8.556,4.182-16.31,9.06-23.239,14.591
				c-11.948-14.142-26.856-29.184-42.165-38.076c-12.396-7.199-26.82-9.138-40.617-5.463C25.986,41.212,14.454,50.037,7.278,62.393
				c-7.177,12.356-9.126,26.747-5.49,40.519c3.644,13.805,12.478,25.372,24.875,32.572c15.786,9.167,36.991,14.724,55.755,18.078
				c-1.074,7.372-1.629,15.078-1.629,23.121c0,39.951,9.222,64.498,20.897,95.576c3.906,10.394,7.944,21.143,12.127,33.718
				c4.7,14.124,7.39,29.544,10.239,45.869c5.123,29.358,10.419,59.714,28.477,83.574c20.806,27.491,54.651,40.854,103.47,40.854
				c48.819,0,82.664-13.363,103.47-40.854c18.058-23.86,23.355-54.217,28.477-83.574c2.849-16.326,5.54-31.746,10.239-45.869
				c4.185-12.574,8.223-23.323,12.127-33.718c11.675-31.078,20.897-55.624,20.897-95.576c0-8.043-0.555-15.749-1.629-23.121
				c18.764-3.353,39.969-8.91,55.757-18.078c12.396-7.2,21.23-18.766,24.874-32.572C513.849,89.14,511.899,74.75,504.723,62.393z
				 M99.374,106.571c-3.356,5.207-6.245,10.757-8.696,16.61c-15.408-2.604-35.152-7.183-48.273-14.803
				c-5.145-2.987-8.806-7.77-10.309-13.466c-1.503-5.69-0.69-11.648,2.288-16.777c2.978-5.129,7.75-8.787,13.437-10.302
				c5.694-1.514,11.661-0.707,16.805,2.281c10.462,6.076,23.151,18.012,36.349,34.07C100.433,104.974,99.893,105.765,99.374,106.571
				z M380.972,261.234c-3.822,10.172-8.154,21.702-12.527,34.844c-5.436,16.336-8.456,33.643-11.377,50.38
				c-4.687,26.864-9.115,52.238-22.592,70.046c-14.677,19.393-39.614,28.425-78.475,28.425s-63.799-9.033-78.475-28.425
				c-13.477-17.808-17.905-43.182-22.592-70.046c-2.92-16.737-5.941-34.044-11.377-50.38c-4.373-13.141-8.704-24.671-12.526-34.844
				c-10.97-29.198-18.895-50.294-18.895-84.552c0-39.604,15.505-66.437,47.403-82.029C182.606,83.377,214.159,77.895,256,77.895
				s73.394,5.481,96.463,16.758c31.898,15.592,47.403,42.424,47.403,82.029C399.867,210.94,391.942,232.037,380.972,261.234z
				 M479.906,94.912c-1.503,5.695-5.165,10.478-10.309,13.466c-13.121,7.62-32.866,12.199-48.273,14.803
				c-2.452-5.854-5.341-11.402-8.696-16.61c-0.519-0.806-1.059-1.596-1.6-2.387c13.197-16.058,25.887-27.993,36.349-34.069
				c5.144-2.988,11.111-3.798,16.805-2.282c5.687,1.515,10.459,5.174,13.437,10.302C480.596,83.263,481.409,89.221,479.906,94.912z"
				/>
		</g>
	</g>
</g>
<g>
</g>
<g>
</g>
<g>
</g>
<g>
</g>
<g>
</g>
<g>
</g>
<g>
</g>
<g>
</g>
<g>
</g>
<g>
</g>
<g>
</g>
<g>
</g>
<g>
</g>
<g>
</g>
<g>
</g>
</svg>
