<?xml version="1.0" encoding="iso-8859-1"?>
<!-- Generator: Adobe Illustrator 19.0.0, SVG Export Plug-In . SVG Version: 6.00 Build 0)  -->
<svg version="1.1" id="Layer_1" xmlns="http://www.w3.org/2000/svg" xmlns:xlink="http://www.w3.org/1999/xlink" x="0px" y="0px"
	 viewBox="0 0 511.999 511.999" style="enable-background:new 0 0 511.999 511.999;" xml:space="preserve">
<g>
	<g>
		<g>
			<path d="M504.832,129.649l-5.696-12.814l-13.367,4.238c-35.27,11.181-76.416,24.09-94.366,29.716
				c-0.629-0.577-1.268-1.146-1.915-1.711c2.661-6.558,4.112-13.685,4.112-21.069v-0.664c-0.172-21.32-12.451-40.44-30.951-49.765
				c-3.048-16.963-13.705-31.645-29.461-39.808c-12.526-6.494-26.95-7.958-40.352-4.398c-10.063-8.628-22.853-13.41-36.481-13.41
				c-0.018,0-0.037,0-0.054,0c-13.66,0.011-26.475,4.833-36.542,13.516c-13.421-3.533-27.859-2.021-40.386,4.532
				c-15.778,8.255-26.385,23.027-29.329,40.054c-18.526,9.485-30.676,28.789-30.604,50.22c0.019,7.045,1.366,13.849,3.816,20.148
				c-0.903,0.773-1.789,1.558-2.66,2.355c-17.949-5.625-59.096-18.534-94.368-29.717l-13.367-4.238l-5.696,12.814
				c-6.844,15.396-12.264,38.092,0.779,58.776c16.997,26.956,56.315,35.359,78.218,37.974c-0.307,4.078-0.463,8.257-0.463,12.542
				c0,38.811,8.951,62.639,20.285,92.805c3.783,10.07,7.695,20.484,11.748,32.66c10.498,31.548,23.188,64.075,44.776,88.259
				c20.223,22.656,45.791,35.25,77.815,38.271v1.098h31.352v-1.098c32.024-3.019,57.592-15.613,77.815-38.271
				c21.588-24.185,34.279-56.712,44.776-88.259c4.053-12.176,7.965-22.589,11.748-32.66c11.334-30.166,20.285-53.994,20.285-92.805
				c0-4.285-0.159-8.463-0.467-12.541c21.902-2.615,61.223-11.017,78.221-37.974C517.096,167.741,511.677,145.045,504.832,129.649z
				 M92.067,195.471c-18.011-2.022-47.944-8.407-57.618-23.792c-1.21-1.926-4.195-6.67-2.768-15.995
				c25.019,7.908,50.91,16.043,68.215,21.472C96.768,182.898,94.163,189.008,92.067,195.471z M169.046,104.146l11.889-3.253
				l-0.357-12.32c-0.279-9.602,4.83-18.332,13.331-22.78c7.147-3.74,15.71-3.762,22.902-0.064l11.736,6.035l7.947-10.535
				c4.748-6.292,11.977-9.906,19.835-9.913c0.008,0,0.017,0,0.024,0c7.849,0,15.072,3.589,19.822,9.848l7.969,10.503l11.713-6.05
				c7.19-3.713,15.751-3.717,22.905-0.009c8.496,4.402,13.641,13.091,13.425,22.677l-0.278,12.33l11.917,3.172
				c10.74,2.858,18.31,12.623,18.423,23.758v0.463c0,11.196-7.535,21.06-18.322,23.991l-11.9,3.231l0.338,12.326
				c0.262,9.59-4.854,18.293-13.372,22.724c-7.146,3.731-15.702,3.749-22.891,0.046l-11.726-6.037l-7.954,10.519
				c-4.755,6.287-11.983,9.893-19.831,9.893c-7.868,0-15.103-3.596-19.847-9.868l-7.961-10.526l-11.729,6.052
				c-7.192,3.712-15.751,3.708-22.905-0.017c-8.502-4.419-13.634-13.117-13.395-22.7l0.307-12.33l-11.911-3.2
				c-10.778-2.896-18.326-12.728-18.356-23.932C150.755,116.982,158.262,107.099,169.046,104.146z M235.545,406.384
				c-8.112-8.107-12.355-16.616-12.355-20.832c0-3.764,0.645-4.035,3.043-5.045c6.836-2.876,20.262-3.208,29.765-3.208
				c9.503,0,22.929,0.332,29.765,3.208c2.398,1.01,3.043,1.281,3.043,5.045c0,4.215-4.244,12.725-12.355,20.832
				c-7.975,7.972-16.49,12.272-20.453,12.272S243.521,414.355,235.545,406.384z M376.664,320.72
				c-3.705,9.863-7.905,21.043-12.146,33.786c-20.788,62.468-42.6,98.873-92.844,104.898v-12.525
				c12.308-4.75,22.332-13.715,26.94-18.319c6.477-6.473,21.544-23.624,21.544-43.006c0-15.856-7.898-27.91-22.236-33.943
				c-9.559-4.023-21.706-5.662-41.924-5.662c-20.218,0-32.365,1.64-41.924,5.662c-14.34,6.033-22.236,18.088-22.236,33.943
				c0,19.382,15.067,36.533,21.544,43.006c4.608,4.606,14.632,13.569,26.94,18.319v12.525
				c-50.242-6.025-72.056-42.429-92.844-104.898c-4.241-12.744-8.441-23.924-12.146-33.786
				c-10.614-28.251-18.283-48.662-18.283-81.778c0-28.622,8.306-50.195,25.309-65.54c2.481,1.829,5.122,3.466,7.907,4.877
				c3.013,16.979,13.652,31.686,29.414,39.877c12.525,6.52,26.955,8.004,40.371,4.448c10.067,8.65,22.882,13.449,36.54,13.449
				c13.652,0,26.466-4.809,36.538-13.479c13.418,3.545,27.846,2.043,40.355-4.49c15.511-8.069,26.274-23.052,29.345-39.943
				c2.525-1.283,4.926-2.755,7.202-4.382c16.74,15.317,24.917,36.764,24.917,65.182C394.947,272.057,387.278,292.469,376.664,320.72
				z M477.549,171.679c-9.677,15.391-39.627,21.774-57.625,23.794c-2.097-6.463-4.71-12.569-7.839-18.312
				c17.306-5.429,43.206-13.566,68.233-21.477C481.744,165.009,478.76,169.753,477.549,171.679z"/>
			<path d="M203.827,251.729c-11.342,0-20.573,9.324-20.573,20.839c0,11.513,9.23,20.846,20.573,20.846
				c11.357,0,20.586-9.334,20.586-20.846C224.412,261.053,215.183,251.729,203.827,251.729z"/>
			<path d="M308.016,251.566c-11.452,0-20.742,9.403-20.742,21.002s9.29,21.002,20.742,21.002c11.438,0,20.728-9.403,20.728-21.002
				C328.743,260.968,319.453,251.566,308.016,251.566z"/>
		</g>
	</g>
</g>
<g>
</g>
<g>
</g>
<g>
</g>
<g>
</g>
<g>
</g>
<g>
</g>
<g>
</g>
<g>
</g>
<g>
</g>
<g>
</g>
<g>
</g>
<g>
</g>
<g>
</g>
<g>
</g>
<g>
</g>
</svg>
