<?xml version="1.0" encoding="iso-8859-1"?>
<!-- Generator: Adobe Illustrator 19.0.0, SVG Export Plug-In . SVG Version: 6.00 Build 0)  -->
<svg version="1.1" id="Layer_1" xmlns="http://www.w3.org/2000/svg" xmlns:xlink="http://www.w3.org/1999/xlink" x="0px" y="0px"
	 viewBox="0 0 512.002 512.002" style="enable-background:new 0 0 512.002 512.002;" xml:space="preserve">
<g>
	<g>
		<path d="M458.009,0c-23.554,0-42.718,19.163-42.718,42.718c0,5.505,1.057,10.762,2.962,15.598
			c-16.547,19.084-27.307,44.813-32.257,64.584c-6.299-1.452-12.847-2.245-19.58-2.245s-13.281,0.793-19.579,2.245
			c-4.95-19.771-15.71-45.499-32.257-64.584c1.905-4.836,2.962-10.094,2.962-15.598C317.541,19.163,298.378,0,274.824,0
			s-42.718,19.163-42.718,42.718s19.163,42.718,42.718,42.718c6.501,0,12.665-1.466,18.188-4.075
			c13.436,16.781,21.835,40.309,24.617,54.272c-17.841,12.103-30.953,30.65-36.02,52.263c-22.048-9.199-45.925-13.995-70.186-13.995
			c-84.859,0-157.485,57.899-173.969,138.14c-6.58,10.373-11.673,22.026-15.086,34.624c-6.916,9.555-11.093,21.862-11.093,35.284
			c0,12.749,3.773,24.488,10.078,33.822c11.966,50.148,50.244,84.904,94.042,84.904c5.287,0,10.502-0.5,15.613-1.47
			c11.385,5.862,27.531,12.799,50.912,12.799h142.928c48.443,0,82.308-10.371,103.53-31.704
			c25.509-25.643,25.327-60.399,25.207-83.397c-0.008-1.563-0.017-3.091-0.017-4.577l-0.027-184.545
			c0-29.976-15.22-56.463-38.335-72.145c2.781-13.963,11.18-37.491,24.617-54.272c5.521,2.609,11.685,4.075,18.188,4.075
			c23.554,0,42.718-19.163,42.718-42.718S481.563,0,458.009,0z M274.824,54.088c-6.269,0-11.371-5.101-11.371-11.371
			s5.101-11.371,11.371-11.371s11.371,5.101,11.371,11.371S281.094,54.088,274.824,54.088z M42.622,381.945
			c0-12.58,7.5-23.616,16.049-23.616c8.548,0,16.049,11.036,16.049,23.616c0,12.581-7.5,23.617-16.049,23.617
			C50.122,405.561,42.622,394.525,42.622,381.945z M115.395,469.323c-20.682,0.001-39.709-12.548-52.079-32.682
			c23.962-2.716,42.751-26.207,42.751-54.696c0-27.861-17.974-50.932-41.179-54.475c12.453-18.731,30.88-30.365,50.507-30.365
			c36.672,0,66.506,38.629,66.506,86.109S152.066,469.323,115.395,469.323z M263.225,458.188
			c-14.828,14.908-42.184,22.465-81.307,22.465c-3.909,0-7.492-0.269-10.828-0.727c5.204-4.333,10.098-9.306,14.609-14.893
			c17.764-22.003,27.548-51.059,27.548-81.818s-9.783-59.815-27.549-81.818c-18.555-22.981-43.523-35.638-70.304-35.638
			c-9.388,0-18.546,1.562-27.306,4.587c26.115-39.561,71.99-65.101,123.335-65.101c23.753,0,47.031,5.547,67.869,16.085v170.992
			c0,1.539,0.008,3.12,0.017,4.741C279.419,418.025,279.543,441.785,263.225,458.188z M422.194,207.779l0.027,184.545
			c0,1.538,0.008,3.119,0.017,4.739c0.11,20.964,0.234,44.723-16.084,61.125c-14.828,14.908-42.184,22.465-81.306,22.465h-39.756
			c0.119-0.119,0.238-0.238,0.357-0.357c25.509-25.643,25.327-60.399,25.207-83.398c-0.008-1.563-0.017-3.091-0.017-4.577V207.777
			c0-30.756,25.021-55.777,55.777-55.777C397.173,152,422.194,177.021,422.194,207.779z M458.009,54.088
			c-6.269,0-11.371-5.101-11.371-11.371s5.101-11.371,11.371-11.371c6.269,0,11.371,5.101,11.371,11.371
			S464.278,54.088,458.009,54.088z"/>
	</g>
</g>
<g>
</g>
<g>
</g>
<g>
</g>
<g>
</g>
<g>
</g>
<g>
</g>
<g>
</g>
<g>
</g>
<g>
</g>
<g>
</g>
<g>
</g>
<g>
</g>
<g>
</g>
<g>
</g>
<g>
</g>
</svg>
