<?xml version="1.0" encoding="iso-8859-1"?>
<!-- Generator: Adobe Illustrator 19.0.0, SVG Export Plug-In . SVG Version: 6.00 Build 0)  -->
<svg version="1.1" id="Layer_1" xmlns="http://www.w3.org/2000/svg" xmlns:xlink="http://www.w3.org/1999/xlink" x="0px" y="0px"
	 viewBox="0 0 512 512" style="enable-background:new 0 0 512 512;" xml:space="preserve">
<g>
	<g>
		<path d="M498.245,39.416L475.38,16.551l-9.526,9.526V0h-32.337v26.078l-9.525-9.525l-22.865,22.865l26.389,26.389
			c-6.909,4.869-15.875,9.375-25.165,14.043c-26.432,13.279-61.296,30.821-76.581,71.81c-22.103-10.014-45.679-15.262-69.77-15.262
			s-47.667,5.248-69.77,15.262c-15.286-40.989-50.149-58.532-76.58-71.811c-9.289-4.667-18.255-9.174-25.164-14.043l26.389-26.389
			L88.009,16.551l-9.526,9.526V0H46.146v26.078l-9.525-9.525L13.755,39.416l27.678,27.678
			c-10.082,18.883-22.54,51.974-13.714,89.781c7.552,32.349,29.007,60.82,63.847,84.815
			c-17.369,31.562-26.892,66.884-26.892,101.666c0,50.708,19.774,93.816,57.186,124.662C156.256,496.38,203.895,512,256,512
			s99.744-15.62,134.141-43.981c37.411-30.846,57.186-73.953,57.186-124.662c0-34.782-9.523-70.104-26.891-101.665
			c34.84-23.995,56.295-52.465,63.846-84.814c8.826-37.807-3.632-70.9-13.714-89.782L498.245,39.416z M59.209,149.527
			c-5.209-22.319,0.149-43.115,6.213-57.563c8.864,6.308,19.122,11.461,29.712,16.781c27.069,13.599,52.766,26.518,62.468,59.128
			c-13.413,9.24-26.02,20.415-37.551,33.406c-3.805,4.288-7.423,8.724-10.872,13.28C81.613,195.394,64.82,173.569,59.209,149.527z
			 M256.033,424.24c-1.492-0.078-6.742-2.25-12.624-8.196c-5.835-5.899-7.86-11.06-7.89-12.506c1.948-0.75,7.129-1.921,20.481-1.921
			s18.533,1.171,20.481,1.921c-0.032,1.455-2.061,6.612-7.89,12.506C262.71,421.99,257.459,424.162,256.033,424.24z M369.569,443.07
			c-25.118,20.711-59.26,33.252-97.401,36.011v-26.346c8.779-4.04,15.729-10.267,19.099-13.635
			c5.277-5.274,17.55-19.298,17.55-35.563c0-13.835-6.908-24.36-19.453-29.639c-7.795-3.28-17.463-4.619-33.365-4.619
			s-25.569,1.338-33.365,4.619c-12.545,5.277-19.453,15.804-19.453,29.639c0,16.265,12.274,30.289,17.551,35.563
			c3.371,3.368,10.32,9.595,19.098,13.635v26.346c-38.141-2.759-72.283-15.301-97.401-36.011
			c-29.714-24.501-45.42-58.98-45.42-99.713c0-42.834,17.214-86.796,47.227-120.613c30.911-34.828,70.602-54.009,111.763-54.009
			c41.161,0,80.852,19.181,111.764,54.009c30.012,33.817,47.226,77.779,47.226,120.613
			C414.989,384.089,399.283,418.569,369.569,443.07z M452.79,149.527c-5.613,24.042-22.404,45.868-49.971,65.031
			c-3.447-4.554-7.066-8.992-10.872-13.279c-11.53-12.992-24.137-24.167-37.551-33.407c9.702-32.61,35.4-45.529,62.468-59.128
			c10.589-5.319,20.849-10.474,29.711-16.781C452.644,106.413,458.001,127.208,452.79,149.527z"/>
	</g>
</g>
<g>
	<g>
		<path d="M202.189,291.096c-11.698,0-21.219,9.618-21.219,21.493c0,11.874,9.52,21.501,21.219,21.501
			c11.714,0,21.232-9.626,21.232-21.501C223.422,300.713,213.903,291.096,202.189,291.096z"/>
	</g>
</g>
<g>
	<g>
		<path d="M309.65,290.928c-11.812,0-21.393,9.698-21.393,21.661s9.581,21.661,21.393,21.661c11.798,0,21.379-9.698,21.379-21.661
			S321.448,290.928,309.65,290.928z"/>
	</g>
</g>
<g>
</g>
<g>
</g>
<g>
</g>
<g>
</g>
<g>
</g>
<g>
</g>
<g>
</g>
<g>
</g>
<g>
</g>
<g>
</g>
<g>
</g>
<g>
</g>
<g>
</g>
<g>
</g>
<g>
</g>
</svg>
