<?xml version="1.0" encoding="iso-8859-1"?>
<!-- Generator: Adobe Illustrator 19.0.0, SVG Export Plug-In . SVG Version: 6.00 Build 0)  -->
<svg version="1.1" id="Layer_1" xmlns="http://www.w3.org/2000/svg" xmlns:xlink="http://www.w3.org/1999/xlink" x="0px" y="0px"
	 viewBox="0 0 512.002 512.002" style="enable-background:new 0 0 512.002 512.002;" xml:space="preserve">
<g>
	<g>
		<g>
			<path d="M203.862,193.114c-11.336,0-20.56,9.319-20.56,20.827c0,11.505,9.225,20.833,20.56,20.833
				c11.35,0,20.573-9.328,20.573-20.833C224.435,202.433,215.212,193.114,203.862,193.114z"/>
			<path d="M307.988,192.952c-11.446,0-20.73,9.397-20.73,20.989s9.284,20.989,20.73,20.989c11.431,0,20.715-9.397,20.715-20.989
				C328.704,202.348,319.42,192.952,307.988,192.952z"/>
			<path d="M490.016,66.398c-15.294-17.178-36.266-27.24-59.051-28.332c-28.711-1.391-55.985,12.297-72.685,35.222
				c-5.252-3.188-10.611-6.158-16.087-8.875C314.63,50.738,285.631,43.804,256,43.804c-29.631,0-58.63,6.934-86.192,20.608
				c-5.477,2.718-10.837,5.687-16.088,8.875c-16.703-22.925-43.985-36.609-72.684-35.223C58.251,39.158,37.279,49.22,21.985,66.398
				C6.769,83.489-1.002,105.589,0.104,128.631c1.588,33.098,21.205,61.678,50.18,74.865c-8.807,25.245-13.494,51.598-13.494,77.686
				c0,57.964,22.586,107.224,65.317,142.458c39.414,32.498,94.068,50.394,153.894,50.394s114.48-17.897,153.894-50.394
				c42.731-35.234,65.317-84.493,65.317-142.458c0-26.088-4.686-52.441-13.494-77.686c28.974-13.185,48.592-41.766,50.18-74.865
				C513.002,105.589,505.231,83.489,490.016,66.398z M31.415,127.129c-0.711-14.797,4.256-28.961,13.982-39.886
				c9.647-10.836,22.838-17.18,37.142-17.868c17.932-0.867,35.007,7.681,45.601,22.024c-9.794,8.012-19.075,16.939-27.785,26.751
				c-15.182,17.107-27.93,36.178-37.931,56.404C44.506,165.996,32.415,147.98,31.415,127.129z M235.565,336.886
				c-8.105-8.101-12.345-16.603-12.345-20.814c0-3.757,0.644-4.028,3.037-5.035c6.832-2.873,20.248-3.206,29.745-3.206
				c9.498,0,22.914,0.332,29.746,3.206c2.394,1.008,3.038,1.279,3.038,5.035c0,4.211-4.241,12.713-12.345,20.814
				c-7.97,7.965-16.479,12.263-20.438,12.263S243.535,344.851,235.565,336.886z M424.366,358.806l-60.373-14.019l-7.091,30.535
				l47.134,10.945c-4.356,4.624-9.045,9.029-14.084,13.185c-30.418,25.081-71.971,40.016-118.277,42.765v-64.853
				c12.3-4.748,22.318-13.706,26.924-18.309c6.474-6.47,21.533-23.614,21.533-42.986c0-15.849-7.894-27.898-22.227-33.929
				c-9.555-4.021-21.695-5.66-41.902-5.66s-32.348,1.639-41.902,5.66c-14.334,6.03-22.227,18.08-22.227,33.929
				c0,19.372,15.059,36.515,21.533,42.986c4.605,4.603,14.622,13.561,26.923,18.309v64.853
				c-46.308-2.748-87.862-17.685-118.281-42.765c-5.04-4.156-9.728-8.56-14.083-13.185l47.137-10.946l-7.091-30.535l-60.377,14.02
				c-11.693-20.574-18.24-44.108-19.326-69.891l79.702,18.508l7.091-30.535l-85.446-19.841
				c5.313-42.565,24.39-84.564,54.143-118.088c32.585-36.714,73.477-58.695,116.528-63.007v67.364h31.347V75.953
				c43.051,4.312,83.943,26.293,116.528,63.007c29.753,33.524,48.83,75.523,54.143,118.089l-85.442,19.84l7.091,30.535
				l79.699-18.507C442.605,314.699,436.059,338.233,424.366,358.806z M480.585,127.129c-1,20.852-13.091,38.867-31.009,47.428
				c-10-20.226-22.747-39.298-37.931-56.404c-8.71-9.814-17.991-18.739-27.785-26.752c10.591-14.343,27.664-22.89,45.602-22.023
				c14.302,0.686,27.493,7.031,37.141,17.868C476.33,98.168,481.296,112.332,480.585,127.129z"/>
		</g>
	</g>
</g>
<g>
</g>
<g>
</g>
<g>
</g>
<g>
</g>
<g>
</g>
<g>
</g>
<g>
</g>
<g>
</g>
<g>
</g>
<g>
</g>
<g>
</g>
<g>
</g>
<g>
</g>
<g>
</g>
<g>
</g>
</svg>
