<?xml version="1.0" encoding="iso-8859-1"?>
<!-- Generator: Adobe Illustrator 19.0.0, SVG Export Plug-In . SVG Version: 6.00 Build 0)  -->
<svg version="1.1" id="Layer_1" xmlns="http://www.w3.org/2000/svg" xmlns:xlink="http://www.w3.org/1999/xlink" x="0px" y="0px"
	 viewBox="0 0 512 512" style="enable-background:new 0 0 512 512;" xml:space="preserve">
<g>
	<g>
		<path d="M440.705,205.948c0-54.654-18.98-106.124-53.442-144.932C352.319,21.67,305.703,0,256,0s-96.318,21.67-131.263,61.017
			c-34.462,38.806-53.442,90.278-53.442,144.932c0,23.437,3.484,46.288,10.345,68.109c-3.85,11.561-5.795,24.16-5.795,37.747
			c0,43.804,33.139,79.995,75.657,84.869V512h32.337V395.577c22.698,10.71,47.344,16.32,72.16,16.32
			c22.9,0,45.655-4.778,66.869-13.931V512h32.337V397.131c45.032-2.348,80.949-39.72,80.949-85.327
			c0-13.587-1.945-26.184-5.795-37.747C437.221,252.237,440.705,229.385,440.705,205.948z M161.292,364.914
			c-29.284-0.001-53.11-23.826-53.11-53.11c0-22.905,7.433-41.633,22.091-55.659c21.491-20.564,58.304-31.93,109.558-33.862v97.973
			c-23.264,4.271-37.479,17.37-49.302,28.281C178.869,359.298,172.272,364.914,161.292,364.914z M256,379.56
			c-15.005,0-29.585-2.426-43.601-7.204c0.02-0.018,0.041-0.038,0.06-0.056c12.289-11.342,22.904-21.136,43.54-21.136
			s31.25,9.795,43.54,21.136c0.021,0.018,0.041,0.038,0.06,0.056C285.585,377.134,271.005,379.56,256,379.56z M350.708,364.913
			c-10.98,0-17.577-5.616-29.238-16.378c-11.823-10.91-26.038-24.01-49.302-28.281v-97.973
			c51.254,1.932,88.066,13.298,109.558,33.862c14.659,14.027,22.091,32.754,22.091,55.659
			C403.818,341.088,379.992,364.913,350.708,364.913z M406.253,234.921c-0.712-0.72-1.434-1.436-2.171-2.141
			c-29.91-28.62-79.733-43.133-148.082-43.133s-118.172,14.512-148.082,43.133c-0.737,0.706-1.459,1.421-2.171,2.141
			c-1.4-9.503-2.115-19.174-2.115-28.973c0-95.729,68.353-173.611,152.368-173.611s152.368,77.882,152.368,173.611
			C408.368,215.747,407.652,225.418,406.253,234.921z"/>
	</g>
</g>
<g>
	<g>
		<path d="M202.189,102.465c-11.698,0-21.219,9.618-21.219,21.493c0.001,11.874,9.521,21.501,21.219,21.501
			c11.714,0,21.232-9.626,21.232-21.501C223.422,112.082,213.904,102.465,202.189,102.465z"/>
	</g>
</g>
<g>
	<g>
		<path d="M309.65,102.296c-11.812,0-21.393,9.698-21.393,21.661s9.581,21.661,21.393,21.661c11.798,0,21.379-9.698,21.379-21.661
			S321.448,102.296,309.65,102.296z"/>
	</g>
</g>
<g>
	<g>
		<path d="M202.194,253.305c-5.478,0-9.936,4.503-9.936,10.064c0,5.56,4.458,10.068,9.936,10.068c5.485,0,9.941-4.508,9.941-10.068
			C212.135,257.809,207.678,253.305,202.194,253.305z"/>
	</g>
</g>
<g>
	<g>
		<path d="M180.968,308.626c-5.478,0-9.936,4.503-9.936,10.064c0,5.56,4.458,10.068,9.936,10.068c5.485,0,9.943-4.508,9.943-10.068
			C190.91,313.13,186.453,308.626,180.968,308.626z"/>
	</g>
</g>
<g>
	<g>
		<path d="M148.207,275.576c-5.478,0-9.936,4.503-9.936,10.064c0,5.56,4.458,10.068,9.936,10.068c5.485,0,9.943-4.508,9.943-10.068
			C158.15,280.079,153.693,275.576,148.207,275.576z"/>
	</g>
</g>
<g>
	<g>
		<path d="M309.806,253.305c-5.485,0-9.941,4.503-9.941,10.064c0,5.56,4.457,10.068,9.941,10.068c5.478,0,9.936-4.508,9.936-10.068
			C319.742,257.809,315.284,253.305,309.806,253.305z"/>
	</g>
</g>
<g>
	<g>
		<path d="M331.032,308.626c-5.485,0-9.943,4.503-9.943,10.064c0,5.56,4.457,10.068,9.943,10.068c5.478,0,9.936-4.508,9.936-10.068
			C340.968,313.13,336.51,308.626,331.032,308.626z"/>
	</g>
</g>
<g>
	<g>
		<path d="M363.793,275.576c-5.485,0-9.943,4.503-9.943,10.064c0,5.56,4.457,10.068,9.943,10.068c5.478,0,9.936-4.508,9.936-10.068
			C373.729,280.079,369.271,275.576,363.793,275.576z"/>
	</g>
</g>
<g>
</g>
<g>
</g>
<g>
</g>
<g>
</g>
<g>
</g>
<g>
</g>
<g>
</g>
<g>
</g>
<g>
</g>
<g>
</g>
<g>
</g>
<g>
</g>
<g>
</g>
<g>
</g>
<g>
</g>
</svg>
