<?xml version="1.0" encoding="iso-8859-1"?>
<!-- Generator: Adobe Illustrator 19.0.0, SVG Export Plug-In . SVG Version: 6.00 Build 0)  -->
<svg version="1.1" id="Layer_1" xmlns="http://www.w3.org/2000/svg" xmlns:xlink="http://www.w3.org/1999/xlink" x="0px" y="0px"
	 viewBox="0 0 512 512" style="enable-background:new 0 0 512 512;" xml:space="preserve">
<g>
	<g>
		<g>
			<path d="M203.837,245.142c-11.34,0-20.57,9.324-20.57,20.835c0,11.511,9.229,20.843,20.57,20.843
				c11.355,0,20.582-9.332,20.582-20.843C224.419,254.465,215.192,245.142,203.837,245.142z"/>
			<path d="M308.008,244.981c-11.45,0-20.738,9.401-20.738,20.998c0,11.597,9.288,20.998,20.738,20.998
				c11.436,0,20.724-9.401,20.724-20.998C328.732,254.381,319.444,244.981,308.008,244.981z"/>
			<path d="M219.852,415.647c-9.79,0-17.756,8.048-17.756,17.986c0,9.937,7.966,17.992,17.756,17.992
				c9.802,0,17.767-8.055,17.767-17.992C237.619,423.695,229.654,415.647,219.852,415.647z"/>
			<path d="M292.014,415.507c-9.885,0-17.902,8.115-17.902,18.126s8.017,18.126,17.902,18.126c9.872,0,17.89-8.116,17.89-18.126
				C309.904,423.621,301.887,415.507,292.014,415.507z"/>
			<path d="M465.754,12.409l-2.55-10.147l-10.35-1.536c-1.809-0.266-44.706-6.247-80.768,21.756
				C350.941,38.903,336.838,63.093,330,94.561c-2.593-1.057-5.181-2.025-7.749-2.905c-2.426-1.028-8.741-3.423-19.2-5.6L316.006,0
				H195.994l12.957,86.058c-10.452,2.177-16.777,4.574-19.197,5.598c-2.569,0.88-5.159,1.847-7.753,2.906
				c-6.839-31.468-20.942-55.658-42.087-72.078C103.851-5.521,60.954,0.458,59.145,0.726l-10.35,1.536l-2.55,10.147
				c-0.302,1.197-7.307,29.728-1.397,64.231c5.154,30.101,21.238,70.124,67.609,96.262c-5.733,20.652-7.811,46.005-4.433,77.134
				c4.195,38.688,13.334,61.722,23.917,88.395c4.113,10.366,8.365,21.086,12.684,33.641c2.494,7.254,2.871,28.024,2.343,40.452
				l-0.015,0.674c0,47.04,23.226,70.797,42.71,82.443C212.283,509.162,238.222,512,256,512c17.779,0,43.718-2.838,66.337-16.358
				c19.484-11.646,42.71-35.404,42.71-82.443l-0.015-0.671c-0.53-12.43-0.153-33.2,2.343-40.455
				c4.319-12.556,8.571-23.274,12.684-33.641c10.583-26.672,19.721-49.706,23.917-88.395c3.376-31.13,1.3-56.483-4.434-77.135
				c46.37-26.138,62.454-66.161,67.608-96.261C473.061,42.138,466.056,13.607,465.754,12.409z M279.585,31.347L267,114.939h-22
				l-12.586-83.592H279.585z M124.517,143.66c-26.65-16.143-42.979-40.061-48.593-71.292c-2.934-16.322-2.24-31.234-1.128-40.924
				c11.555,0.473,30.146,3.439,46.172,16.018c16.951,13.305,27.737,34.648,32.168,63.469
				C142.34,119.203,132.42,129.888,124.517,143.66z M306.255,468.735c-17.349,10.371-38.933,11.918-50.255,11.918
				c-11.321,0-32.905-1.547-50.254-11.918c-18.394-10.994-27.373-29.058-27.446-55.217c0.054-1.307,0.131-3.486,0.181-6.249
				c17.618-16.308,46.672-26.263,77.519-26.263c30.847,0,59.902,9.956,77.52,26.263c0.051,2.763,0.128,4.941,0.181,6.249
				C333.628,439.675,324.648,457.741,306.255,468.735z M372.813,246.658c-3.1,28.585-9.143,47.354-16.901,67.513h-47.755v31.347
				h35.495c-1.943,5.14-3.914,10.531-5.919,16.36c-0.831,2.416-1.505,5.21-2.052,8.222c-22.061-13.066-50.052-20.44-79.682-20.44
				c-29.63,0-57.62,7.374-79.681,20.44c-0.547-3.012-1.22-5.805-2.052-8.221c-2.005-5.831-3.976-11.221-5.919-16.361h35.494v-31.347
				h-47.754c-7.758-20.159-13.801-38.928-16.901-67.513c-1.105-10.196-1.555-19.812-1.394-28.872h55.514v-31.347h-51.921
				c2.566-11.157,6.471-21.044,11.752-29.566c10.289-16.603,26.197-28.626,47.284-35.734l0.707-0.189l0.899-0.451
				c0.606-0.254,4.412-1.785,11.598-3.385l4.393,29.174h75.963l4.393-29.174c7.163,1.594,10.959,3.118,11.587,3.381l0.576,0.294
				l1.041,0.35c21.087,7.108,36.996,19.131,47.285,35.733c5.281,8.522,9.187,18.409,11.753,29.567h-51.921v31.347h55.513
				C374.368,226.844,373.919,236.46,372.813,246.658z M436.254,71.348c-5.434,31.729-21.823,55.992-48.772,72.312
				c-7.903-13.772-17.824-24.457-28.62-32.729c4.431-28.821,15.217-50.164,32.168-63.469c16.035-12.586,34.633-15.548,46.167-16.021
				C438.286,40.943,438.975,55.458,436.254,71.348z"/>
		</g>
	</g>
</g>
<g>
</g>
<g>
</g>
<g>
</g>
<g>
</g>
<g>
</g>
<g>
</g>
<g>
</g>
<g>
</g>
<g>
</g>
<g>
</g>
<g>
</g>
<g>
</g>
<g>
</g>
<g>
</g>
<g>
</g>
</svg>
